<svg xmlns="http://www.w3.org/2000/svg" xmlns:xlink="http://www.w3.org/1999/xlink" xmlns:lucid="lucid" width="1160" height="440"><g transform="translate(-180 -300)" lucid:page-tab-id="0_0"><path d="M200 360v-40h1120v40" stroke="#000" stroke-width="2" fill="#fff"/><path d="M200 400v-40h240v40z" fill="#fff"/><path d="M200 400v320h240V400z" fill="none"/><path d="M440 400v-40h640v40z" fill="#fff"/><path d="M440 400v320h640V400z" fill="none"/><path d="M440 360v360" stroke="#000" stroke-width="2" fill="none"/><path d="M1080 360h240v40h-240z" fill="#fff"/><path d="M1320 400v320h-240V400z" fill="none"/><path d="M1080 360v360M200 400h1120M200 400v-40h240m0 0h640m0 0h240v40m0 0v320h-240m-640 0h640M200 400v320h240" stroke="#000" stroke-width="2" fill="none"/><use xlink:href="#a" transform="matrix(1,0,0,1,200,360) translate(112.025 23.6)"/><use xlink:href="#b" transform="matrix(1,0,0,1,200,320) translate(486.125 23.6)"/><use xlink:href="#c" transform="matrix(1,0,0,1,200,320) translate(536.025 23.6)"/><use xlink:href="#d" transform="matrix(1,0,0,1,200,320) translate(603.975 23.6)"/><use xlink:href="#e" transform="matrix(1,0,0,1,440,360) translate(285.55 23.6)"/><use xlink:href="#f" transform="matrix(1,0,0,1,1080,360) translate(106.075 23.6)"/><path d="M240 440h160v80H240z" stroke="#ffc374" stroke-width="2" fill="#ffc374"/><use xlink:href="#g" transform="matrix(1,0,0,1,245,445) translate(41.574999999999996 38.4625)"/><use xlink:href="#h" transform="matrix(1,0,0,1,245,445) translate(95.475 38.4625)"/><path d="M1120 440h160v80h-160z" stroke="#ffc374" stroke-width="2" fill="#ffc374"/><use xlink:href="#i" transform="matrix(1,0,0,1,1125,445) translate(41.574999999999996 38.4625)"/><use xlink:href="#j" transform="matrix(1,0,0,1,1125,445) translate(95.475 38.4625)"/><path d="M480 440h160v80H480z" stroke="#83bbe5" stroke-width="2" fill="#83bbe5"/><use xlink:href="#k" transform="matrix(1,0,0,1,485,445) translate(31.049999999999997 38.4625)"/><use xlink:href="#h" transform="matrix(1,0,0,1,485,445) translate(106 38.4625)"/><path d="M680 440h160v80H680z" stroke="#83bbe5" stroke-width="2" fill="#83bbe5"/><use xlink:href="#k" transform="matrix(1,0,0,1,685,445) translate(31.049999999999997 38.4625)"/><use xlink:href="#l" transform="matrix(1,0,0,1,685,445) translate(106 38.4625)"/><path d="M642 480h18.5" stroke="#000" stroke-width="2" fill="none"/><path d="M642.03 481H641v-2h1.03z"/><path d="M675.76 480l-14.26 4.64v-9.28z" stroke="#000" stroke-width="2"/><path d="M880 440h160v80H880z" stroke="#83bbe5" stroke-width="2" fill="#83bbe5"/><use xlink:href="#k" transform="matrix(1,0,0,1,885,445) translate(31.049999999999997 38.4625)"/><use xlink:href="#m" transform="matrix(1,0,0,1,885,445) translate(106 38.4625)"/><path d="M842 480h18.5" stroke="#000" stroke-width="2" fill="none"/><path d="M842.03 481H841v-2h1.03z"/><path d="M875.76 480l-14.26 4.64v-9.28z" stroke="#000" stroke-width="2"/><path d="M201 560h1118M201.03 560H200M1318.97 560h1.03" stroke="#000" stroke-width="2" fill="none"/><path d="M240 600h160v80H240z" stroke="#ffc374" stroke-width="2" fill="#ffc374"/><use xlink:href="#g" transform="matrix(1,0,0,1,245,605) translate(41.574999999999996 38.4625)"/><use xlink:href="#m" transform="matrix(1,0,0,1,245,605) translate(95.475 38.4625)"/><path d="M1120 600h160v80h-160z" stroke="#ffc374" stroke-width="2" fill="#ffc374"/><use xlink:href="#i" transform="matrix(1,0,0,1,1125,605) translate(41.574999999999996 38.4625)"/><use xlink:href="#n" transform="matrix(1,0,0,1,1125,605) translate(95.475 38.4625)"/><path d="M480 600h160v80H480z" stroke="#83bbe5" stroke-width="2" fill="#83bbe5"/><use xlink:href="#k" transform="matrix(1,0,0,1,485,605) translate(31.049999999999997 38.4625)"/><use xlink:href="#o" transform="matrix(1,0,0,1,485,605) translate(106 38.4625)"/><path d="M680 600h160v80H680z" stroke="#83bbe5" stroke-width="2" fill="#83bbe5"/><g><use xlink:href="#k" transform="matrix(1,0,0,1,685,605) translate(31.049999999999997 38.4625)"/><use xlink:href="#l" transform="matrix(1,0,0,1,685,605) translate(106 38.4625)"/></g><path d="M642 640h18.5" stroke="#000" stroke-width="2" fill="none"/><path d="M642.03 641H641v-2h1.03z"/><path d="M675.76 640l-14.26 4.64v-9.28z" stroke="#000" stroke-width="2"/><path d="M880 600h160v80H880z" stroke="#83bbe5" stroke-width="2" fill="#83bbe5"/><g><use xlink:href="#k" transform="matrix(1,0,0,1,885,605) translate(31.049999999999997 38.4625)"/><use xlink:href="#m" transform="matrix(1,0,0,1,885,605) translate(106 38.4625)"/></g><path d="M842 640h18.5" stroke="#000" stroke-width="2" fill="none"/><path d="M842.03 641H841v-2h1.03z"/><path d="M875.76 640l-14.26 4.64v-9.28z" stroke="#000" stroke-width="2"/><defs><path d="M25-224v-37h50v37H25zM25 0v-190h50V0H25" id="p"/><path d="M135-194c87-1 58 113 63 194h-50c-7-57 23-157-34-157-59 0-34 97-39 157H25l-1-190h47c2 12-1 28 3 38 12-26 28-41 61-42" id="q"/><g id="a"><use transform="matrix(0.05,0,0,0.05,0,0)" xlink:href="#p"/><use transform="matrix(0.05,0,0,0.05,5,0)" xlink:href="#q"/></g><path d="M24-231v-30h32v30H24zM24 0v-190h32V0H24" id="r"/><path d="M117-194c89-4 53 116 60 194h-32v-121c0-31-8-49-39-48C34-167 62-67 57 0H25l-1-190h30c1 10-1 24 2 32 11-22 29-35 61-36" id="s"/><path d="M16-82v-28h88v28H16" id="t"/><path d="M100-194c62-1 85 37 85 99 1 63-27 99-86 99S16-35 15-95c0-66 28-99 85-99zM99-20c44 1 53-31 53-75 0-43-8-75-51-75s-53 32-53 75 10 74 51 75" id="u"/><path d="M84 4C-5 8 30-112 23-190h32v120c0 31 7 50 39 49 72-2 45-101 50-169h31l1 190h-30c-1-10 1-25-2-33-11 22-28 36-60 37" id="v"/><path d="M59-47c-2 24 18 29 38 22v24C64 9 27 4 27-40v-127H5v-23h24l9-43h21v43h35v23H59v120" id="w"/><g id="b"><use transform="matrix(0.05,0,0,0.05,0,0)" xlink:href="#r"/><use transform="matrix(0.05,0,0,0.05,3.95,0)" xlink:href="#s"/><use transform="matrix(0.05,0,0,0.05,13.949999999999998,0)" xlink:href="#t"/><use transform="matrix(0.05,0,0,0.05,19.9,0)" xlink:href="#u"/><use transform="matrix(0.05,0,0,0.05,29.899999999999995,0)" xlink:href="#v"/><use transform="matrix(0.05,0,0,0.05,39.9,0)" xlink:href="#w"/></g><path d="M115-194c55 1 70 41 70 98S169 2 115 4C84 4 66-9 55-30l1 105H24l-1-265h31l2 30c10-21 28-34 59-34zm-8 174c40 0 45-34 45-75s-6-73-45-74c-42 0-51 32-51 76 0 43 10 73 51 73" id="x"/><path d="M114-163C36-179 61-72 57 0H25l-1-190h30c1 12-1 29 2 39 6-27 23-49 58-41v29" id="y"/><path d="M96-169c-40 0-48 33-48 73s9 75 48 75c24 0 41-14 43-38l32 2c-6 37-31 61-74 61-59 0-76-41-82-99-10-93 101-131 147-64 4 7 5 14 7 22l-32 3c-4-21-16-35-41-35" id="z"/><path d="M100-194c63 0 86 42 84 106H49c0 40 14 67 53 68 26 1 43-12 49-29l28 8c-11 28-37 45-77 45C44 4 14-33 15-96c1-61 26-98 85-98zm52 81c6-60-76-77-97-28-3 7-6 17-6 28h103" id="A"/><path d="M135-143c-3-34-86-38-87 0 15 53 115 12 119 90S17 21 10-45l28-5c4 36 97 45 98 0-10-56-113-15-118-90-4-57 82-63 122-42 12 7 21 19 24 35" id="B"/><g id="c"><use transform="matrix(0.05,0,0,0.05,0,0)" xlink:href="#x"/><use transform="matrix(0.05,0,0,0.05,10,0)" xlink:href="#y"/><use transform="matrix(0.05,0,0,0.05,15.949999999999998,0)" xlink:href="#u"/><use transform="matrix(0.05,0,0,0.05,25.950000000000003,0)" xlink:href="#z"/><use transform="matrix(0.05,0,0,0.05,34.95,0)" xlink:href="#A"/><use transform="matrix(0.05,0,0,0.05,44.95,0)" xlink:href="#B"/><use transform="matrix(0.05,0,0,0.05,53.95,0)" xlink:href="#B"/></g><path d="M177-190C167-65 218 103 67 71c-23-6-38-20-44-43l32-5c15 47 100 32 89-28v-30C133-14 115 1 83 1 29 1 15-40 15-95c0-56 16-97 71-98 29-1 48 16 59 35 1-10 0-23 2-32h30zM94-22c36 0 50-32 50-73 0-42-14-75-50-75-39 0-46 34-46 75s6 73 46 73" id="C"/><path d="M85-194c31 0 48 13 60 33l-1-100h32l1 261h-30c-2-10 0-23-3-31C134-8 116 4 85 4 32 4 16-35 15-94c0-66 23-100 70-100zm9 24c-40 0-46 34-46 75 0 40 6 74 45 74 42 0 51-32 51-76 0-42-9-74-50-73" id="D"/><g id="d"><use transform="matrix(0.05,0,0,0.05,0,0)" xlink:href="#C"/><use transform="matrix(0.05,0,0,0.05,10,0)" xlink:href="#y"/><use transform="matrix(0.05,0,0,0.05,15.949999999999998,0)" xlink:href="#r"/><use transform="matrix(0.05,0,0,0.05,19.9,0)" xlink:href="#D"/></g><path d="M135-194c53 0 70 44 70 98 0 56-19 98-73 100-31 1-45-17-59-34 3 33 2 69 2 105H25l-1-265h48c2 10 0 23 3 31 11-24 29-35 60-35zM114-30c33 0 39-31 40-66 0-38-9-64-40-64-56 0-55 130 0 130" id="E"/><path d="M135-150c-39-12-60 13-60 57V0H25l-1-190h47c2 13-1 29 3 40 6-28 27-53 61-41v41" id="F"/><path d="M110-194c64 0 96 36 96 99 0 64-35 99-97 99-61 0-95-36-95-99 0-62 34-99 96-99zm-1 164c35 0 45-28 45-65 0-40-10-65-43-65-34 0-45 26-45 65 0 36 10 65 43 65" id="G"/><path d="M190-63c-7 42-38 67-86 67-59 0-84-38-90-98-12-110 154-137 174-36l-49 2c-2-19-15-32-35-32-30 0-35 28-38 64-6 74 65 87 74 30" id="H"/><path d="M185-48c-13 30-37 53-82 52C43 2 14-33 14-96s30-98 90-98c62 0 83 45 84 108H66c0 31 8 55 39 56 18 0 30-7 34-22zm-45-69c5-46-57-63-70-21-2 6-4 13-4 21h74" id="I"/><path d="M137-138c1-29-70-34-71-4 15 46 118 7 119 86 1 83-164 76-172 9l43-7c4 19 20 25 44 25 33 8 57-30 24-41C81-84 22-81 20-136c-2-80 154-74 161-7" id="J"/><g id="e"><use transform="matrix(0.05,0,0,0.05,0,0)" xlink:href="#E"/><use transform="matrix(0.05,0,0,0.05,10.950000000000001,0)" xlink:href="#F"/><use transform="matrix(0.05,0,0,0.05,17.950000000000003,0)" xlink:href="#G"/><use transform="matrix(0.05,0,0,0.05,28.900000000000006,0)" xlink:href="#H"/><use transform="matrix(0.05,0,0,0.05,38.900000000000006,0)" xlink:href="#I"/><use transform="matrix(0.05,0,0,0.05,48.900000000000006,0)" xlink:href="#J"/><use transform="matrix(0.05,0,0,0.05,58.900000000000006,0)" xlink:href="#J"/></g><path d="M85 4C-2 5 27-109 22-190h50c7 57-23 150 33 157 60-5 35-97 40-157h50l1 190h-47c-2-12 1-28-3-38-12 25-28 42-61 42" id="K"/><path d="M115-3C79 11 28 4 28-45v-112H4v-33h27l15-45h31v45h36v33H77v99c-1 23 16 31 38 25v30" id="L"/><g id="f"><use transform="matrix(0.05,0,0,0.05,0,0)" xlink:href="#G"/><use transform="matrix(0.05,0,0,0.05,10.950000000000001,0)" xlink:href="#K"/><use transform="matrix(0.05,0,0,0.05,21.900000000000002,0)" xlink:href="#L"/></g><path d="M24 0v-248h195v40H76v63h132v40H76v65h150V0H24" id="M"/><path d="M128 0H69L1-190h53L99-40l48-150h52" id="N"/><g id="g"><use transform="matrix(0.05,0,0,0.05,0,0)" xlink:href="#M"/><use transform="matrix(0.05,0,0,0.05,12,0)" xlink:href="#N"/><use transform="matrix(0.05,0,0,0.05,22,0)" xlink:href="#I"/><use transform="matrix(0.05,0,0,0.05,32,0)" xlink:href="#q"/><use transform="matrix(0.05,0,0,0.05,42.95,0)" xlink:href="#L"/></g><path d="M199 0l-22-63H83L61 0H9l90-248h61L250 0h-51zm-33-102l-36-108c-10 38-24 72-36 108h72" id="O"/><use transform="matrix(0.05,0,0,0.05,0,0)" xlink:href="#O" id="h"/><g id="i"><use transform="matrix(0.05,0,0,0.05,0,0)" xlink:href="#M"/><use transform="matrix(0.05,0,0,0.05,12,0)" xlink:href="#N"/><use transform="matrix(0.05,0,0,0.05,22,0)" xlink:href="#I"/><use transform="matrix(0.05,0,0,0.05,32,0)" xlink:href="#q"/><use transform="matrix(0.05,0,0,0.05,42.95,0)" xlink:href="#L"/></g><path d="M182-130c37 4 62 22 62 59C244 23 116-4 24 0v-248c84 5 203-23 205 63 0 31-19 50-47 55zM76-148c40-3 101 13 101-30 0-44-60-28-101-31v61zm0 110c48-3 116 14 116-37 0-48-69-32-116-35v72" id="P"/><use transform="matrix(0.05,0,0,0.05,0,0)" xlink:href="#P" id="j"/><path d="M24-248c93 1 206-16 204 79-1 75-69 88-152 82V0H24v-248zm52 121c47 0 100 7 100-41 0-47-54-39-100-39v80" id="Q"/><g id="k"><use transform="matrix(0.05,0,0,0.05,0,0)" xlink:href="#Q"/><use transform="matrix(0.05,0,0,0.05,12,0)" xlink:href="#F"/><use transform="matrix(0.05,0,0,0.05,19,0)" xlink:href="#G"/><use transform="matrix(0.05,0,0,0.05,29.950000000000003,0)" xlink:href="#H"/><use transform="matrix(0.05,0,0,0.05,39.95,0)" xlink:href="#I"/><use transform="matrix(0.05,0,0,0.05,49.95,0)" xlink:href="#J"/><use transform="matrix(0.05,0,0,0.05,59.95,0)" xlink:href="#J"/></g><use transform="matrix(0.05,0,0,0.05,0,0)" xlink:href="#P" id="l"/><path d="M67-125c0 53 21 87 73 88 37 1 54-22 65-47l45 17C233-25 199 4 140 4 58 4 20-42 15-125 8-235 124-281 211-232c18 10 29 29 36 50l-46 12c-8-25-30-41-62-41-52 0-71 34-72 86" id="R"/><use transform="matrix(0.05,0,0,0.05,0,0)" xlink:href="#R" id="m"/><path d="M24-248c120-7 223 5 221 122C244-46 201 0 124 0H24v-248zM76-40c74 7 117-18 117-86 0-67-45-88-117-82v168" id="S"/><use transform="matrix(0.05,0,0,0.05,0,0)" xlink:href="#S" id="n"/><use transform="matrix(0.05,0,0,0.05,0,0)" xlink:href="#S" id="o"/></defs></g></svg>