<svg xmlns="http://www.w3.org/2000/svg" xmlns:xlink="http://www.w3.org/1999/xlink" xmlns:lucid="lucid" width="940" height="540"><g transform="translate(-60 -60)" lucid:page-tab-id="0_0"><path d="M80 100v480h900V100" stroke="#834187" stroke-width="2" fill="none"/><path d="M80 80h900v40H80z" stroke="#834187" stroke-width="2" fill="#834187"/><use xlink:href="#a" transform="matrix(1,0,0,1,100,80) translate(397.575 23.6)"/><path d="M340 160h160v80H340z" stroke="#c92d39" stroke-width="2" fill="#c92d39"/><use xlink:href="#b" transform="matrix(1,0,0,1,345,165) translate(60.025 38.6)"/><path d="M340 320h160v80H340z" stroke="#c92d39" stroke-width="2" fill="#c92d39"/><use xlink:href="#c" transform="matrix(1,0,0,1,345,325) translate(42.074999999999996 38.6)"/><path d="M120 320h160v80H120z" stroke="#c92d39" stroke-width="2" fill="#c92d39"/><use xlink:href="#d" transform="matrix(1,0,0,1,125,325) translate(16.64999999999999 38.6)"/><path d="M780 460h160v80H780z" stroke="#c92d39" stroke-width="2" fill="#c92d39"/><use xlink:href="#e" transform="matrix(1,0,0,1,785,465) translate(54.675 38.6)"/><path d="M420 242v58.5" stroke="#000" stroke-width="2" fill="none"/><path d="M421 242.03h-2V241h2z"/><path d="M420 315.76l-4.64-14.26h9.28z" stroke="#000" stroke-width="2"/><path d="M282 360h38.5" stroke="#000" stroke-width="2" fill="none"/><path d="M282.03 361H281v-2h1.03z"/><path d="M335.76 360l-14.26 4.64v-9.28z" stroke="#000" stroke-width="2"/><path d="M780 320h160v80H780z" fill="#fff"/><path d="M797.14 320h11.43m11.43 0h11.43m11.43 0h11.43m11.4 0h11.44m11.43 0H900m11.43 0h11.43m11.43 0h5.7v6.67m0 13.33v13.33m0 13.34V380m0 13.33V400h-5.7m-11.44 0h-11.43M900 400h-11.43m-11.43 0H865.7m-11.4 0h-11.44m-11.43 0H820m-11.43 0h-11.43m-11.43 0H780v-6.67m0-13.33v-13.33m0-13.34V340m0-13.33V320h5.7" stroke="#c92d39" stroke-width="3" fill="none"/><use xlink:href="#f" transform="matrix(1,0,0,1,785,325) translate(26.074999999999996 38.6)"/><path d="M860 458v-38" stroke="#000" stroke-width="2" fill="none"/><path d="M861 459h-2v-1.03h2z"/><path d="M860 404.74l4.64 14.26h-9.28z" stroke="#000" stroke-width="2"/><path d="M420 242v37.75h440V300" stroke="#000" stroke-width="2" fill="none"/><path d="M421 242.03h-2V241h2z"/><path d="M860 315.26L855.36 301h9.28z" stroke="#000" stroke-width="2"/><path d="M420 242v38H200v20.5" stroke="#000" stroke-width="2" fill="none"/><path d="M421 242.03h-2V241h2z"/><path d="M200 315.76l-4.64-14.26h9.28z" stroke="#000" stroke-width="2"/><path d="M561.14 320h160v80h-160z" fill="#fff"/><path d="M578.28 320h11.43m11.44 0h11.43m11.42 0h11.42m11.43 0h11.43m11.43 0h11.44m11.43 0H704m11.42 0h5.72v6.67m0 13.33v13.33m0 13.34V380m0 13.33V400h-5.72M704 400h-11.43m-11.43 0H669.7m-11.42 0h-11.43m-11.43 0H624m-11.43 0h-11.43m-11.43 0H578.3m-11.43 0h-5.7v-6.67m0-13.33v-13.33m0-13.34V340m0-13.33V320h5.7" stroke="#c92d39" stroke-width="3" fill="none"/><use xlink:href="#g" transform="matrix(1,0,0,1,566.1375857594835,325) translate(41.525 38.6)"/><path d="M502 360h39.14" stroke="#000" stroke-width="2" fill="none"/><path d="M502.03 361H501v-2h1.03z"/><path d="M556.4 360l-14.26 4.64v-9.28z" stroke="#000" stroke-width="2"/><path d="M777.5 360h-36.36" stroke="#000" stroke-width="2" fill="none"/><path d="M778.5 361h-1.03v-2h1.03z"/><path d="M725.87 360l14.27-4.64v9.28z" stroke="#000" stroke-width="2"/><defs><path fill="#fff" d="M137-138c1-29-70-34-71-4 15 46 118 7 119 86 1 83-164 76-172 9l43-7c4 19 20 25 44 25 33 8 57-30 24-41C81-84 22-81 20-136c-2-80 154-74 161-7" id="h"/><path fill="#fff" d="M110-194c64 0 96 36 96 99 0 64-35 99-97 99-61 0-95-36-95-99 0-62 34-99 96-99zm-1 164c35 0 45-28 45-65 0-40-10-65-43-65-34 0-45 26-45 65 0 36 10 65 43 65" id="i"/><path fill="#fff" d="M135-194c53 0 70 44 70 98 0 56-19 98-73 100-31 1-45-17-59-34 3 33 2 69 2 105H25l-1-265h48c2 10 0 23 3 31 11-24 29-35 60-35zM114-30c33 0 39-31 40-66 0-38-9-64-40-64-56 0-55 130 0 130" id="j"/><path fill="#fff" d="M14-72v-43h91v43H14" id="k"/><path fill="#fff" d="M135-150c-39-12-60 13-60 57V0H25l-1-190h47c2 13-1 29 3 40 6-28 27-53 61-41v41" id="l"/><path fill="#fff" d="M190-63c-7 42-38 67-86 67-59 0-84-38-90-98-12-110 154-137 174-36l-49 2c-2-19-15-32-35-32-30 0-35 28-38 64-6 74 65 87 74 30" id="m"/><g id="a"><use transform="matrix(0.05,0,0,0.05,0,0)" xlink:href="#h"/><use transform="matrix(0.05,0,0,0.05,10,0)" xlink:href="#i"/><use transform="matrix(0.05,0,0,0.05,20.950000000000003,0)" xlink:href="#j"/><use transform="matrix(0.05,0,0,0.05,31.900000000000006,0)" xlink:href="#k"/><use transform="matrix(0.05,0,0,0.05,37.85000000000001,0)" xlink:href="#h"/><use transform="matrix(0.05,0,0,0.05,47.85000000000001,0)" xlink:href="#l"/><use transform="matrix(0.05,0,0,0.05,54.85,0)" xlink:href="#m"/></g><path fill="#fff" d="M199 0l-22-63H83L61 0H9l90-248h61L250 0h-51zm-33-102l-36-108c-10 38-24 72-36 108h72" id="n"/><path fill="#fff" d="M24-248c93 1 206-16 204 79-1 75-69 88-152 82V0H24v-248zm52 121c47 0 100 7 100-41 0-47-54-39-100-39v80" id="o"/><path fill="#fff" d="M24 0v-248h52V0H24" id="p"/><g id="b"><use transform="matrix(0.05,0,0,0.05,0,0)" xlink:href="#n"/><use transform="matrix(0.05,0,0,0.05,12.950000000000001,0)" xlink:href="#o"/><use transform="matrix(0.05,0,0,0.05,24.950000000000003,0)" xlink:href="#p"/></g><path fill="#fff" d="M24-248c120-7 223 5 221 122C244-46 201 0 124 0H24v-248zM76-40c74 7 117-18 117-86 0-67-45-88-117-82v168" id="q"/><path fill="#fff" d="M220-157c-53 9-28 100-34 157h-49v-107c1-27-5-49-29-50C55-147 81-57 75 0H25l-1-190h47c2 12-1 28 3 38 10-53 101-56 108 0 13-22 24-43 59-42 82 1 51 116 57 194h-49v-107c-1-25-5-48-29-50" id="r"/><path fill="#fff" d="M133-34C117-15 103 5 69 4 32 3 11-16 11-54c-1-60 55-63 116-61 1-26-3-47-28-47-18 1-26 9-28 27l-52-2c7-38 36-58 82-57s74 22 75 68l1 82c-1 14 12 18 25 15v27c-30 8-71 5-69-32zm-48 3c29 0 43-24 42-57-32 0-66-3-65 30 0 17 8 27 23 27" id="s"/><path fill="#fff" d="M25-224v-37h50v37H25zM25 0v-190h50V0H25" id="t"/><path fill="#fff" d="M135-194c87-1 58 113 63 194h-50c-7-57 23-157-34-157-59 0-34 97-39 157H25l-1-190h47c2 12-1 28 3 38 12-26 28-41 61-42" id="u"/><g id="c"><use transform="matrix(0.05,0,0,0.05,0,0)" xlink:href="#q"/><use transform="matrix(0.05,0,0,0.05,12.950000000000001,0)" xlink:href="#i"/><use transform="matrix(0.05,0,0,0.05,23.900000000000002,0)" xlink:href="#r"/><use transform="matrix(0.05,0,0,0.05,39.900000000000006,0)" xlink:href="#s"/><use transform="matrix(0.05,0,0,0.05,49.900000000000006,0)" xlink:href="#t"/><use transform="matrix(0.05,0,0,0.05,54.900000000000006,0)" xlink:href="#u"/></g><path fill="#fff" d="M121-226c-27-7-43 5-38 36h38v33H83V0H34v-157H6v-33h28c-9-59 32-81 87-68v32" id="v"/><path fill="#fff" d="M115-3C79 11 28 4 28-45v-112H4v-33h27l15-45h31v45h36v33H77v99c-1 23 16 31 38 25v30" id="w"/><path fill="#fff" d="M85 4C-2 5 27-109 22-190h50c7 57-23 150 33 157 60-5 35-97 40-157h50l1 190h-47c-2-12 1-28-3-38-12 25-28 42-61 42" id="x"/><path fill="#fff" d="M185-48c-13 30-37 53-82 52C43 2 14-33 14-96s30-98 90-98c62 0 83 45 84 108H66c0 31 8 55 39 56 18 0 30-7 34-22zm-45-69c5-46-57-63-70-21-2 6-4 13-4 21h74" id="y"/><g id="d"><use transform="matrix(0.05,0,0,0.05,0,0)" xlink:href="#p"/><use transform="matrix(0.05,0,0,0.05,5,0)" xlink:href="#u"/><use transform="matrix(0.05,0,0,0.05,15.950000000000001,0)" xlink:href="#v"/><use transform="matrix(0.05,0,0,0.05,21.900000000000002,0)" xlink:href="#l"/><use transform="matrix(0.05,0,0,0.05,28.900000000000002,0)" xlink:href="#s"/><use transform="matrix(0.05,0,0,0.05,38.900000000000006,0)" xlink:href="#h"/><use transform="matrix(0.05,0,0,0.05,48.900000000000006,0)" xlink:href="#w"/><use transform="matrix(0.05,0,0,0.05,54.85,0)" xlink:href="#l"/><use transform="matrix(0.05,0,0,0.05,61.85,0)" xlink:href="#x"/><use transform="matrix(0.05,0,0,0.05,72.80000000000001,0)" xlink:href="#m"/><use transform="matrix(0.05,0,0,0.05,82.80000000000001,0)" xlink:href="#w"/><use transform="matrix(0.05,0,0,0.05,88.75000000000001,0)" xlink:href="#x"/><use transform="matrix(0.05,0,0,0.05,99.70000000000002,0)" xlink:href="#l"/><use transform="matrix(0.05,0,0,0.05,106.7,0)" xlink:href="#y"/></g><path fill="#fff" d="M147 0H94L2-248h55l64 206c17-72 42-137 63-206h54" id="z"/><path fill="#fff" d="M231 0h-52l-39-155L100 0H48L-1-190h46L77-45c9-52 24-97 36-145h53l37 145 32-145h46" id="A"/><g id="e"><use transform="matrix(0.05,0,0,0.05,0,0)" xlink:href="#z"/><use transform="matrix(0.05,0,0,0.05,11.65,0)" xlink:href="#t"/><use transform="matrix(0.05,0,0,0.05,16.65,0)" xlink:href="#y"/><use transform="matrix(0.05,0,0,0.05,26.649999999999995,0)" xlink:href="#A"/></g><path fill="#c92d39" d="M128 0H69L1-190h53L99-40l48-150h52" id="B"/><path fill="#c92d39" d="M25-224v-37h50v37H25zM25 0v-190h50V0H25" id="C"/><path fill="#c92d39" d="M185-48c-13 30-37 53-82 52C43 2 14-33 14-96s30-98 90-98c62 0 83 45 84 108H66c0 31 8 55 39 56 18 0 30-7 34-22zm-45-69c5-46-57-63-70-21-2 6-4 13-4 21h74" id="D"/><path fill="#c92d39" d="M231 0h-52l-39-155L100 0H48L-1-190h46L77-45c9-52 24-97 36-145h53l37 145 32-145h46" id="E"/><path fill="#c92d39" d="M14-72v-43h91v43H14" id="F"/><path fill="#c92d39" d="M220-157c-53 9-28 100-34 157h-49v-107c1-27-5-49-29-50C55-147 81-57 75 0H25l-1-190h47c2 12-1 28 3 38 10-53 101-56 108 0 13-22 24-43 59-42 82 1 51 116 57 194h-49v-107c-1-25-5-48-29-50" id="G"/><path fill="#c92d39" d="M110-194c64 0 96 36 96 99 0 64-35 99-97 99-61 0-95-36-95-99 0-62 34-99 96-99zm-1 164c35 0 45-28 45-65 0-40-10-65-43-65-34 0-45 26-45 65 0 36 10 65 43 65" id="H"/><path fill="#c92d39" d="M88-194c31-1 46 15 58 34l-1-101h50l1 261h-48c-2-10 0-23-3-31C134-8 116 4 84 4 32 4 16-41 15-95c0-56 19-97 73-99zm17 164c33 0 40-30 41-66 1-37-9-64-41-64s-38 30-39 65c0 43 13 65 39 65" id="I"/><path fill="#c92d39" d="M25 0v-261h50V0H25" id="J"/><g id="f"><use transform="matrix(0.05,0,0,0.05,0,0)" xlink:href="#B"/><use transform="matrix(0.05,0,0,0.05,10,0)" xlink:href="#C"/><use transform="matrix(0.05,0,0,0.05,15,0)" xlink:href="#D"/><use transform="matrix(0.05,0,0,0.05,25,0)" xlink:href="#E"/><use transform="matrix(0.05,0,0,0.05,39,0)" xlink:href="#F"/><use transform="matrix(0.05,0,0,0.05,44.95,0)" xlink:href="#G"/><use transform="matrix(0.05,0,0,0.05,60.95,0)" xlink:href="#H"/><use transform="matrix(0.05,0,0,0.05,71.9,0)" xlink:href="#I"/><use transform="matrix(0.05,0,0,0.05,82.85000000000001,0)" xlink:href="#D"/><use transform="matrix(0.05,0,0,0.05,92.85000000000001,0)" xlink:href="#J"/></g><path fill="#c92d39" d="M137-138c1-29-70-34-71-4 15 46 118 7 119 86 1 83-164 76-172 9l43-7c4 19 20 25 44 25 33 8 57-30 24-41C81-84 22-81 20-136c-2-80 154-74 161-7" id="K"/><path fill="#c92d39" d="M190-63c-7 42-38 67-86 67-59 0-84-38-90-98-12-110 154-137 174-36l-49 2c-2-19-15-32-35-32-30 0-35 28-38 64-6 74 65 87 74 30" id="L"/><path fill="#c92d39" d="M114-157C55-157 80-60 75 0H25v-261h50l-1 109c12-26 28-41 61-42 86-1 58 113 63 194h-50c-7-57 23-157-34-157" id="M"/><path fill="#c92d39" d="M133-34C117-15 103 5 69 4 32 3 11-16 11-54c-1-60 55-63 116-61 1-26-3-47-28-47-18 1-26 9-28 27l-52-2c7-38 36-58 82-57s74 22 75 68l1 82c-1 14 12 18 25 15v27c-30 8-71 5-69-32zm-48 3c29 0 43-24 42-57-32 0-66-3-65 30 0 17 8 27 23 27" id="N"/><g id="g"><use transform="matrix(0.05,0,0,0.05,0,0)" xlink:href="#K"/><use transform="matrix(0.05,0,0,0.05,10,0)" xlink:href="#L"/><use transform="matrix(0.05,0,0,0.05,20,0)" xlink:href="#M"/><use transform="matrix(0.05,0,0,0.05,30.950000000000003,0)" xlink:href="#D"/><use transform="matrix(0.05,0,0,0.05,40.95,0)" xlink:href="#G"/><use transform="matrix(0.05,0,0,0.05,56.95,0)" xlink:href="#N"/></g></defs></g></svg>