<svg xmlns="http://www.w3.org/2000/svg" xmlns:xlink="http://www.w3.org/1999/xlink" xmlns:lucid="lucid" width="1020" height="1480"><g transform="translate(-60 -60)" lucid:page-tab-id="0_0"><path d="M120 120H80v1400h40" fill="#834187"/><path d="M120 120v1400" stroke="#834187" stroke-width="2" fill="none"/><path d="M120 120V80h940v40" fill="#834187"/><path d="M120 120h940M120 120V80h940v1440H80V120h40zM80 1360h980" stroke="#834187" stroke-width="2" fill="none"/><use xlink:href="#a" transform="matrix(1,0,0,1,120,80) translate(438.075 23.6)"/><use xlink:href="#b" transform="matrix(-1.8369701987210297e-16,-1,1,-1.8369701987210297e-16,80,1520) translate(48.575 23.6)"/><path d="M278.86 570h160v80h-160z" stroke="#c92d39" stroke-width="2" fill="#c92d39"/><use xlink:href="#c" transform="matrix(1,0,0,1,283.8624142405165,575) translate(61.5 38.6)"/><path d="M278.86 880h160v80h-160z" stroke="#c92d39" stroke-width="2" fill="#c92d39"/><use xlink:href="#d" transform="matrix(1,0,0,1,283.8624142405165,885) translate(59.05 38.6)"/><path d="M278.86 280h160v80h-160z" stroke="#c92d39" stroke-width="2" fill="#c92d39"/><use xlink:href="#e" transform="matrix(1,0,0,1,283.8624142405165,285) translate(59.05 38.6)"/><path d="M278.86 1000h160v80c-26.72-13.36-43.36-13.36-53.44-13.36-16 0-37.28 13.36-53.28 13.36-9.92 0-26.72 0-53.28-13.36z" stroke="#c92d39" stroke-width="2" fill="#c92d39"/><use xlink:href="#f" transform="matrix(1,0,0,1,283.8624142405165,1005) translate(34.125 32.1)"/><path d="M278.86 1240h160v80c-26.72-13.36-43.36-13.36-53.44-13.36-16 0-37.28 13.36-53.28 13.36-9.92 0-26.72 0-53.28-13.36z" stroke="#c92d39" stroke-width="2" fill="#c92d39"/><use xlink:href="#g" transform="matrix(1,0,0,1,283.8624142405165,1245) translate(20.124999999999993 32.1)"/><path d="M202 200h37.43v120h19.93" stroke="#000" stroke-width="2" fill="none"/><path d="M202.03 201h-1.15l.12-.96-.03-1.04h1.06z"/><path d="M274.63 320l-14.27 4.64v-9.28z" stroke="#000" stroke-width="2"/><path d="M202 200h37.43v410h19.93" stroke="#000" stroke-width="2" fill="none"/><path d="M202.03 201h-1.15l.12-.96-.03-1.04h1.06z"/><path d="M274.63 610l-14.27 4.64v-9.28z" stroke="#000" stroke-width="2"/><path d="M202 200h37.43v720h19.93" stroke="#000" stroke-width="2" fill="none"/><path d="M202.03 201h-1.15l.12-.96-.03-1.04h1.06z"/><path d="M274.63 920l-14.27 4.64v-9.28z" stroke="#000" stroke-width="2"/><path d="M202 200h37.43v840h19.93" stroke="#000" stroke-width="2" fill="none"/><path d="M202.03 201h-1.15l.12-.96-.03-1.04h1.06z"/><path d="M274.63 1040l-14.27 4.64v-9.28z" stroke="#000" stroke-width="2"/><path d="M202 200h37.43v1080h19.93" stroke="#000" stroke-width="2" fill="none"/><path d="M202.03 201h-1.15l.12-.96-.03-1.04h1.06z"/><path d="M274.63 1280l-14.27 4.64v-9.28z" stroke="#000" stroke-width="2"/><path d="M518.86 280h160v80h-160z" stroke="#c92d39" stroke-width="2" fill="#c92d39"/><use xlink:href="#h" transform="matrix(1,0,0,1,523.8624142405165,285) translate(32.099999999999994 38.6)"/><path d="M440.86 320h58.5" stroke="#000" stroke-width="2" fill="none"/><path d="M440.9 321h-1.04v-2h1.03z"/><path d="M514.63 320l-14.27 4.64v-9.28z" stroke="#000" stroke-width="2"/><path d="M518.86 920h11M563.86 920h5M543.86 940c11.05 0 20-8.95 20-20s-8.95-20-20-20" stroke="#000" stroke-width="2" fill="none"/><path d="M543.86 906c7.73 0 14 6.27 14 14s-6.27 14-14 14-14-6.27-14-14 6.27-14 14-14z" stroke="#000" stroke-width="2" fill="#834187"/><path d="M518.86 919.2h11v1.6h-11z" fill="none"/><path d="M440.86 920h77" stroke="#000" stroke-width="2" fill="none"/><path d="M440.9 921h-1.04v-2h1.03zM518.86 921h-1.02v-2h1.02z"/><path d="M760 800h11M805 800h5M785 820c11.05 0 20-8.95 20-20s-8.95-20-20-20" stroke="#000" stroke-width="2" fill="none"/><path d="M785 786c7.73 0 14 6.27 14 14s-6.27 14-14 14-14-6.27-14-14 6.27-14 14-14z" stroke="#000" stroke-width="2" fill="#834187"/><path d="M760 799.2h11v1.6h-11z" fill="none"/><path d="M760 680h11M805 680h5M785 700c11.05 0 20-8.95 20-20s-8.95-20-20-20" stroke="#000" stroke-width="2" fill="none"/><path d="M785 666c7.73 0 14 6.27 14 14s-6.27 14-14 14-14-6.27-14-14 6.27-14 14-14z" stroke="#000" stroke-width="2" fill="#834187"/><path d="M760 679.2h11v1.6h-11z" fill="none"/><path d="M760 560h11M805 560h5M785 580c11.05 0 20-8.95 20-20s-8.95-20-20-20" stroke="#000" stroke-width="2" fill="none"/><path d="M785 546c7.73 0 14 6.27 14 14s-6.27 14-14 14-14-6.27-14-14 6.27-14 14-14z" stroke="#000" stroke-width="2" fill="#834187"/><path d="M760 559.2h11v1.6h-11z" fill="none"/><path d="M760 440h11M805 440h5M785 460c11.05 0 20-8.95 20-20s-8.95-20-20-20" stroke="#000" stroke-width="2" fill="none"/><path d="M785 426c7.73 0 14 6.27 14 14s-6.27 14-14 14-14-6.27-14-14 6.27-14 14-14z" stroke="#000" stroke-width="2" fill="#834187"/><path d="M760 439.2h11v1.6h-11z" fill="none"/><path d="M811 440h30.5" stroke="#000" stroke-width="2" fill="none"/><path d="M811.03 441H810v-2h1.03z"/><path d="M856.76 440l-14.26 4.64v-9.28z" stroke="#000" stroke-width="2"/><path d="M860 410h160v60H860z" stroke="#000" stroke-opacity="0" stroke-width="2" fill="#fff" fill-opacity="0"/><use xlink:href="#i" transform="matrix(1,0,0,1,865,415) translate(0 28.6)"/><path d="M811 560h30.5" stroke="#000" stroke-width="2" fill="none"/><path d="M811.03 561H810v-2h1.03z"/><path d="M856.76 560l-14.26 4.64v-9.28z" stroke="#000" stroke-width="2"/><path d="M860 530h160v60H860z" stroke="#000" stroke-opacity="0" stroke-width="2" fill="#fff" fill-opacity="0"/><use xlink:href="#j" transform="matrix(1,0,0,1,865,535) translate(0 28.6)"/><path d="M811 680h30.5" stroke="#000" stroke-width="2" fill="none"/><path d="M811.03 681H810v-2h1.03z"/><path d="M856.76 680l-14.26 4.64v-9.28z" stroke="#000" stroke-width="2"/><path d="M860 650h160v60H860z" stroke="#000" stroke-opacity="0" stroke-width="2" fill="#fff" fill-opacity="0"/><use xlink:href="#k" transform="matrix(1,0,0,1,865,655) translate(0 28.6)"/><path d="M811 800h30.5" stroke="#000" stroke-width="2" fill="none"/><path d="M811.03 801H810v-2h1.03z"/><path d="M856.76 800l-14.26 4.64v-9.28z" stroke="#000" stroke-width="2"/><path d="M860 770h160v60H860z" stroke="#000" stroke-opacity="0" stroke-width="2" fill="#fff" fill-opacity="0"/><use xlink:href="#l" transform="matrix(1,0,0,1,865,775) translate(0 28.6)"/><path d="M569.86 920h29.5" stroke="#000" stroke-width="2" fill="none"/><path d="M569.9 921h-1.04v-2h1.03z"/><path d="M614.63 920l-14.27 4.64v-9.28z" stroke="#000" stroke-width="2"/><path d="M617.86 890h160v60h-160z" stroke="#000" stroke-opacity="0" stroke-width="2" fill="#fff" fill-opacity="0"/><use xlink:href="#m" transform="matrix(1,0,0,1,622.8624142405165,895) translate(0 28.6)"/><path d="M200 200c0 11.05-8.95 20-20 20s-20-8.95-20-20 8.95-20 20-20 20 8.95 20 20z" stroke="#000" stroke-width="2" fill="#834187"/><path d="M358.86 160l80 40-80 40-80-40z" stroke="#c92d39" stroke-width="2" fill="#c92d39"/><use xlink:href="#n" transform="matrix(1,0,0,1,283.8624142405165,165) translate(61.55 38.6)"/><path d="M202 200h58.36" stroke="#000" stroke-width="2" fill="none"/><path d="M202.03 201h-1.15l.12-.96-.03-1.04h1.06z"/><path d="M275.63 200l-14.27 4.64v-9.28z" stroke="#000" stroke-width="2"/><path d="M439.86 200h59.5" stroke="#000" stroke-width="2" fill="none"/><path d="M439.9 201h-.8l.8-.4zm0-1.6l-.8-.4h.8z"/><path d="M514.63 200l-14.27 4.64v-9.28z" stroke="#000" stroke-width="2"/><path d="M518.86 160h160v80c-26.72-13.36-43.36-13.36-53.44-13.36-16 0-37.28 13.36-53.28 13.36-9.92 0-26.72 0-53.28-13.36z" stroke="#0c7cba" stroke-width="2" fill="#0c7cba"/><use xlink:href="#o" transform="matrix(1,0,0,1,523.8624142405165,165) translate(38.55 32.1)"/><path d="M278.86 1120h160v80c-26.72-13.36-43.36-13.36-53.44-13.36-16 0-37.28 13.36-53.28 13.36-9.92 0-26.72 0-53.28-13.36z" stroke="#c92d39" stroke-width="2" fill="#c92d39"/><use xlink:href="#p" transform="matrix(1,0,0,1,283.8624142405165,1125) translate(31.574999999999996 32.1)"/><path d="M202 200h37.43v960h19.93" stroke="#000" stroke-width="2" fill="none"/><path d="M202.03 201h-1.15l.12-.96-.03-1.04h1.06z"/><path d="M274.63 1160l-14.27 4.64v-9.28z" stroke="#000" stroke-width="2"/><path d="M278.86 1400h160v80c-26.72-13.36-43.36-13.36-53.44-13.36-16 0-37.28 13.36-53.28 13.36-9.92 0-26.72 0-53.28-13.36z" stroke="#c92d39" stroke-width="2" fill="#c92d39"/><use xlink:href="#q" transform="matrix(1,0,0,1,283.8624142405165,1405) translate(18.099999999999994 32.1)"/><path d="M259.36 1440h-19.93V200H202" stroke="#000" stroke-width="2" fill="none"/><path d="M274.63 1440l-14.27 4.64v-9.28z" stroke="#000" stroke-width="2"/><path d="M202.03 201h-1.15l.12-.96-.03-1.04h1.06z"/><path d="M518.8 400h160v80h-160z" stroke="#c92d39" stroke-width="2" fill="#c92d39"/><use xlink:href="#r" transform="matrix(1,0,0,1,523.7865040332647,405) translate(62.025 38.6)"/><path d="M518.8 520h160v80h-160z" stroke="#c92d39" stroke-width="2" fill="#c92d39"/><use xlink:href="#s" transform="matrix(1,0,0,1,523.7865040332647,525) translate(43.074999999999996 38.6)"/><path d="M598.8 640l80 40-80 40-80-40z" stroke="#c92d39" stroke-width="2" fill="#c92d39"/><use xlink:href="#t" transform="matrix(1,0,0,1,523.7865040332647,645) translate(16.64999999999999 38.6)"/><path d="M598.8 760l80 40-80 40-80-40z" stroke="#c92d39" stroke-width="2" fill="#c92d39"/><use xlink:href="#u" transform="matrix(1,0,0,1,523.7865040332647,765) translate(55.5 38.6)"/><path d="M440.86 610h37.96V440h20.46" stroke="#000" stroke-width="2" fill="none"/><path d="M440.9 611h-1.04v-2h1.03z"/><path d="M514.55 440l-14.27 4.64v-9.28z" stroke="#000" stroke-width="2"/><path d="M440.86 610h37.96v-50h20.46" stroke="#000" stroke-width="2" fill="none"/><path d="M440.9 611h-1.04v-2h1.03z"/><path d="M514.55 560l-14.27 4.64v-9.28z" stroke="#000" stroke-width="2"/><path d="M440.86 610h38.46v70h20.96" stroke="#000" stroke-width="2" fill="none"/><path d="M440.9 611h-1.04v-2h1.03z"/><path d="M515.55 680l-14.27 4.64v-9.28z" stroke="#000" stroke-width="2"/><path d="M440.86 610h38.46v190h20.96" stroke="#000" stroke-width="2" fill="none"/><path d="M440.9 611h-1.04v-2h1.03z"/><path d="M515.55 800l-14.27 4.64v-9.28z" stroke="#000" stroke-width="2"/><path d="M680.8 440H759" stroke="#000" stroke-width="2" fill="none"/><path d="M680.8 441h-1v-2h1zM760 441h-1.03v-2H760z"/><path d="M680.8 560H759" stroke="#000" stroke-width="2" fill="none"/><path d="M680.8 561h-1v-2h1zM760 561h-1.03v-2H760z"/><path d="M679.8 680H759" stroke="#000" stroke-width="2" fill="none"/><path d="M679.8 681h-.78l.8-.4zm0-1.6l-.78-.4h.8zM760 681h-1.03v-2H760z"/><path d="M679.8 800H759" stroke="#000" stroke-width="2" fill="none"/><path d="M679.8 801h-.78l.8-.4zm0-1.6l-.78-.4h.8zM760 801h-1.03v-2H760z"/><defs><path fill="#fff" d="M137-138c1-29-70-34-71-4 15 46 118 7 119 86 1 83-164 76-172 9l43-7c4 19 20 25 44 25 33 8 57-30 24-41C81-84 22-81 20-136c-2-80 154-74 161-7" id="v"/><path fill="#fff" d="M110-194c64 0 96 36 96 99 0 64-35 99-97 99-61 0-95-36-95-99 0-62 34-99 96-99zm-1 164c35 0 45-28 45-65 0-40-10-65-43-65-34 0-45 26-45 65 0 36 10 65 43 65" id="w"/><path fill="#fff" d="M135-194c53 0 70 44 70 98 0 56-19 98-73 100-31 1-45-17-59-34 3 33 2 69 2 105H25l-1-265h48c2 10 0 23 3 31 11-24 29-35 60-35zM114-30c33 0 39-31 40-66 0-38-9-64-40-64-56 0-55 130 0 130" id="x"/><path fill="#fff" d="M14-72v-43h91v43H14" id="y"/><path fill="#fff" d="M220-157c-53 9-28 100-34 157h-49v-107c1-27-5-49-29-50C55-147 81-57 75 0H25l-1-190h47c2 12-1 28 3 38 10-53 101-56 108 0 13-22 24-43 59-42 82 1 51 116 57 194h-49v-107c-1-25-5-48-29-50" id="z"/><g id="a"><use transform="matrix(0.05,0,0,0.05,0,0)" xlink:href="#v"/><use transform="matrix(0.05,0,0,0.05,10,0)" xlink:href="#w"/><use transform="matrix(0.05,0,0,0.05,20.950000000000003,0)" xlink:href="#x"/><use transform="matrix(0.05,0,0,0.05,31.900000000000006,0)" xlink:href="#y"/><use transform="matrix(0.05,0,0,0.05,37.85000000000001,0)" xlink:href="#z"/><use transform="matrix(0.05,0,0,0.05,53.85,0)" xlink:href="#v"/></g><path fill="#fff" d="M135-194c87-1 58 113 63 194h-50c-7-57 23-157-34-157-59 0-34 97-39 157H25l-1-190h47c2 12-1 28 3 38 12-26 28-41 61-42" id="A"/><path fill="#fff" d="M88-194c31-1 46 15 58 34l-1-101h50l1 261h-48c-2-10 0-23-3-31C134-8 116 4 84 4 32 4 16-41 15-95c0-56 19-97 73-99zm17 164c33 0 40-30 41-66 1-37-9-64-41-64s-38 30-39 65c0 43 13 65 39 65" id="B"/><path fill="#fff" d="M185-48c-13 30-37 53-82 52C43 2 14-33 14-96s30-98 90-98c62 0 83 45 84 108H66c0 31 8 55 39 56 18 0 30-7 34-22zm-45-69c5-46-57-63-70-21-2 6-4 13-4 21h74" id="C"/><path fill="#fff" d="M24 0v-54h51V0H24" id="D"/><path fill="#fff" d="M25-224v-37h50v37H25zM75 22c2 45-34 59-81 51V38c22 5 31-5 31-27v-201h50V22" id="E"/><g id="b"><use transform="matrix(0.05,0,0,0.05,0,0)" xlink:href="#A"/><use transform="matrix(0.05,0,0,0.05,10.950000000000001,0)" xlink:href="#w"/><use transform="matrix(0.05,0,0,0.05,21.900000000000002,0)" xlink:href="#B"/><use transform="matrix(0.05,0,0,0.05,32.85,0)" xlink:href="#C"/><use transform="matrix(0.05,0,0,0.05,42.85,0)" xlink:href="#D"/><use transform="matrix(0.05,0,0,0.05,47.85,0)" xlink:href="#E"/><use transform="matrix(0.05,0,0,0.05,52.85,0)" xlink:href="#v"/></g><path fill="#fff" d="M135-150c-39-12-60 13-60 57V0H25l-1-190h47c2 13-1 29 3 40 6-28 27-53 61-41v41" id="F"/><path fill="#fff" d="M190-63c-7 42-38 67-86 67-59 0-84-38-90-98-12-110 154-137 174-36l-49 2c-2-19-15-32-35-32-30 0-35 28-38 64-6 74 65 87 74 30" id="G"/><g id="c"><use transform="matrix(0.05,0,0,0.05,0,0)" xlink:href="#v"/><use transform="matrix(0.05,0,0,0.05,10,0)" xlink:href="#F"/><use transform="matrix(0.05,0,0,0.05,17,0)" xlink:href="#G"/></g><path fill="#fff" d="M115-3C79 11 28 4 28-45v-112H4v-33h27l15-45h31v45h36v33H77v99c-1 23 16 31 38 25v30" id="H"/><g id="d"><use transform="matrix(0.05,0,0,0.05,0,0)" xlink:href="#H"/><use transform="matrix(0.05,0,0,0.05,5.95,0)" xlink:href="#C"/><use transform="matrix(0.05,0,0,0.05,15.949999999999998,0)" xlink:href="#v"/><use transform="matrix(0.05,0,0,0.05,25.950000000000003,0)" xlink:href="#H"/></g><g id="e"><use transform="matrix(0.05,0,0,0.05,0,0)" xlink:href="#B"/><use transform="matrix(0.05,0,0,0.05,10.950000000000001,0)" xlink:href="#w"/><use transform="matrix(0.05,0,0,0.05,21.900000000000002,0)" xlink:href="#G"/></g><path fill="#fff" d="M195-6C206 82 75 100 31 46c-4-6-6-13-8-21l49-6c3 16 16 24 34 25 40 0 42-37 40-79-11 22-30 35-61 35-53 0-70-43-70-97 0-56 18-96 73-97 30 0 46 14 59 34l2-30h47zm-90-29c32 0 41-27 41-63 0-35-9-62-40-62-32 0-39 29-40 63 0 36 9 62 39 62" id="I"/><path fill="#fff" d="M25-224v-37h50v37H25zM25 0v-190h50V0H25" id="J"/><g id="f"><use transform="matrix(0.05,0,0,0.05,0,0)" xlink:href="#D"/><use transform="matrix(0.05,0,0,0.05,5,0)" xlink:href="#I"/><use transform="matrix(0.05,0,0,0.05,15.950000000000001,0)" xlink:href="#J"/><use transform="matrix(0.05,0,0,0.05,20.950000000000003,0)" xlink:href="#H"/><use transform="matrix(0.05,0,0,0.05,26.900000000000002,0)" xlink:href="#J"/><use transform="matrix(0.05,0,0,0.05,31.900000000000002,0)" xlink:href="#I"/><use transform="matrix(0.05,0,0,0.05,42.85,0)" xlink:href="#A"/><use transform="matrix(0.05,0,0,0.05,53.800000000000004,0)" xlink:href="#w"/><use transform="matrix(0.05,0,0,0.05,64.75,0)" xlink:href="#F"/><use transform="matrix(0.05,0,0,0.05,71.75,0)" xlink:href="#C"/></g><path fill="#fff" d="M240-174c0 40-23 61-54 70L253 0h-59l-57-94H76V0H24v-248c93 4 217-23 216 74zM76-134c48-2 112 12 112-38 0-48-66-32-112-35v73" id="K"/><path fill="#fff" d="M24 0v-248h195v40H76v63h132v40H76v65h150V0H24" id="L"/><path fill="#fff" d="M199 0l-22-63H83L61 0H9l90-248h61L250 0h-51zm-33-102l-36-108c-10 38-24 72-36 108h72" id="M"/><path fill="#fff" d="M24-248c120-7 223 5 221 122C244-46 201 0 124 0H24v-248zM76-40c74 7 117-18 117-86 0-67-45-88-117-82v168" id="N"/><path fill="#fff" d="M230 0l2-204L168 0h-37L68-204 70 0H24v-248h70l56 185 57-185h69V0h-46" id="O"/><g id="g"><use transform="matrix(0.05,0,0,0.05,0,0)" xlink:href="#K"/><use transform="matrix(0.05,0,0,0.05,12.950000000000001,0)" xlink:href="#L"/><use transform="matrix(0.05,0,0,0.05,24.950000000000003,0)" xlink:href="#M"/><use transform="matrix(0.05,0,0,0.05,37.900000000000006,0)" xlink:href="#N"/><use transform="matrix(0.05,0,0,0.05,50.85000000000001,0)" xlink:href="#O"/><use transform="matrix(0.05,0,0,0.05,65.80000000000001,0)" xlink:href="#L"/><use transform="matrix(0.05,0,0,0.05,77.80000000000001,0)" xlink:href="#D"/><use transform="matrix(0.05,0,0,0.05,82.80000000000001,0)" xlink:href="#z"/><use transform="matrix(0.05,0,0,0.05,98.80000000000001,0)" xlink:href="#B"/></g><path fill="#fff" d="M133-34C117-15 103 5 69 4 32 3 11-16 11-54c-1-60 55-63 116-61 1-26-3-47-28-47-18 1-26 9-28 27l-52-2c7-38 36-58 82-57s74 22 75 68l1 82c-1 14 12 18 25 15v27c-30 8-71 5-69-32zm-48 3c29 0 43-24 42-57-32 0-66-3-65 30 0 17 8 27 23 27" id="P"/><g id="h"><use transform="matrix(0.05,0,0,0.05,0,0)" xlink:href="#I"/><use transform="matrix(0.05,0,0,0.05,10.950000000000001,0)" xlink:href="#C"/><use transform="matrix(0.05,0,0,0.05,20.950000000000003,0)" xlink:href="#A"/><use transform="matrix(0.05,0,0,0.05,31.900000000000006,0)" xlink:href="#C"/><use transform="matrix(0.05,0,0,0.05,41.900000000000006,0)" xlink:href="#F"/><use transform="matrix(0.05,0,0,0.05,48.900000000000006,0)" xlink:href="#P"/><use transform="matrix(0.05,0,0,0.05,58.900000000000006,0)" xlink:href="#H"/><use transform="matrix(0.05,0,0,0.05,64.85000000000001,0)" xlink:href="#C"/><use transform="matrix(0.05,0,0,0.05,74.85000000000001,0)" xlink:href="#B"/></g><path d="M135-143c-3-34-86-38-87 0 15 53 115 12 119 90S17 21 10-45l28-5c4 36 97 45 98 0-10-56-113-15-118-90-4-57 82-63 122-42 12 7 21 19 24 35" id="Q"/><path d="M100-194c62-1 85 37 85 99 1 63-27 99-86 99S16-35 15-95c0-66 28-99 85-99zM99-20c44 1 53-31 53-75 0-43-8-75-51-75s-53 32-53 75 10 74 51 75" id="R"/><path d="M115-194c55 1 70 41 70 98S169 2 115 4C84 4 66-9 55-30l1 105H24l-1-265h31l2 30c10-21 28-34 59-34zm-8 174c40 0 45-34 45-75s-6-73-45-74c-42 0-51 32-51 76 0 43 10 73 51 73" id="S"/><path d="M16-82v-28h88v28H16" id="T"/><path d="M141-36C126-15 110 5 73 4 37 3 15-17 15-53c-1-64 63-63 125-63 3-35-9-54-41-54-24 1-41 7-42 31l-33-3c5-37 33-52 76-52 45 0 72 20 72 64v82c-1 20 7 32 28 27v20c-31 9-61-2-59-35zM48-53c0 20 12 33 32 33 41-3 63-29 60-74-43 2-92-5-92 41" id="U"/><path d="M24-231v-30h32v30H24zM24 0v-190h32V0H24" id="V"/><g id="i"><use transform="matrix(0.05,0,0,0.05,0,0)" xlink:href="#Q"/><use transform="matrix(0.05,0,0,0.05,9,0)" xlink:href="#R"/><use transform="matrix(0.05,0,0,0.05,19,0)" xlink:href="#S"/><use transform="matrix(0.05,0,0,0.05,29,0)" xlink:href="#T"/><use transform="matrix(0.05,0,0,0.05,34.95,0)" xlink:href="#U"/><use transform="matrix(0.05,0,0,0.05,44.95,0)" xlink:href="#S"/><use transform="matrix(0.05,0,0,0.05,54.95,0)" xlink:href="#V"/></g><path d="M85-194c31 0 48 13 60 33l-1-100h32l1 261h-30c-2-10 0-23-3-31C134-8 116 4 85 4 32 4 16-35 15-94c0-66 23-100 70-100zm9 24c-40 0-46 34-46 75 0 40 6 74 45 74 42 0 51-32 51-76 0-42-9-74-50-73" id="W"/><path d="M210-169c-67 3-38 105-44 169h-31v-121c0-29-5-50-35-48C34-165 62-65 56 0H25l-1-190h30c1 10-1 24 2 32 10-44 99-50 107 0 11-21 27-35 58-36 85-2 47 119 55 194h-31v-121c0-29-5-49-35-48" id="X"/><path d="M117-194c89-4 53 116 60 194h-32v-121c0-31-8-49-39-48C34-167 62-67 57 0H25l-1-190h30c1 10-1 24 2 32 11-22 29-35 61-36" id="Y"/><g id="j"><use transform="matrix(0.05,0,0,0.05,0,0)" xlink:href="#Q"/><use transform="matrix(0.05,0,0,0.05,9,0)" xlink:href="#R"/><use transform="matrix(0.05,0,0,0.05,19,0)" xlink:href="#S"/><use transform="matrix(0.05,0,0,0.05,29,0)" xlink:href="#T"/><use transform="matrix(0.05,0,0,0.05,34.95,0)" xlink:href="#W"/><use transform="matrix(0.05,0,0,0.05,44.95,0)" xlink:href="#R"/><use transform="matrix(0.05,0,0,0.05,54.95,0)" xlink:href="#X"/><use transform="matrix(0.05,0,0,0.05,69.9,0)" xlink:href="#U"/><use transform="matrix(0.05,0,0,0.05,79.9,0)" xlink:href="#V"/><use transform="matrix(0.05,0,0,0.05,83.85000000000001,0)" xlink:href="#Y"/></g><path d="M101-234c-31-9-42 10-38 44h38v23H63V0H32v-167H5v-23h27c-7-52 17-82 69-68v24" id="Z"/><path d="M114-163C36-179 61-72 57 0H25l-1-190h30c1 12-1 29 2 39 6-27 23-49 58-41v29" id="aa"/><path d="M59-47c-2 24 18 29 38 22v24C64 9 27 4 27-40v-127H5v-23h24l9-43h21v43h35v23H59v120" id="ab"/><path d="M84 4C-5 8 30-112 23-190h32v120c0 31 7 50 39 49 72-2 45-101 50-169h31l1 190h-30c-1-10 1-25-2-33-11 22-28 36-60 37" id="ac"/><path d="M96-169c-40 0-48 33-48 73s9 75 48 75c24 0 41-14 43-38l32 2c-6 37-31 61-74 61-59 0-76-41-82-99-10-93 101-131 147-64 4 7 5 14 7 22l-32 3c-4-21-16-35-41-35" id="ad"/><path d="M100-194c63 0 86 42 84 106H49c0 40 14 67 53 68 26 1 43-12 49-29l28 8c-11 28-37 45-77 45C44 4 14-33 15-96c1-61 26-98 85-98zm52 81c6-60-76-77-97-28-3 7-6 17-6 28h103" id="ae"/><g id="k"><use transform="matrix(0.05,0,0,0.05,0,0)" xlink:href="#Q"/><use transform="matrix(0.05,0,0,0.05,9,0)" xlink:href="#R"/><use transform="matrix(0.05,0,0,0.05,19,0)" xlink:href="#S"/><use transform="matrix(0.05,0,0,0.05,29,0)" xlink:href="#T"/><use transform="matrix(0.05,0,0,0.05,34.95,0)" xlink:href="#V"/><use transform="matrix(0.05,0,0,0.05,38.900000000000006,0)" xlink:href="#Y"/><use transform="matrix(0.05,0,0,0.05,48.900000000000006,0)" xlink:href="#Z"/><use transform="matrix(0.05,0,0,0.05,53.900000000000006,0)" xlink:href="#aa"/><use transform="matrix(0.05,0,0,0.05,59.85,0)" xlink:href="#U"/><use transform="matrix(0.05,0,0,0.05,69.85000000000001,0)" xlink:href="#Q"/><use transform="matrix(0.05,0,0,0.05,78.85000000000001,0)" xlink:href="#ab"/><use transform="matrix(0.05,0,0,0.05,83.85000000000001,0)" xlink:href="#aa"/><use transform="matrix(0.05,0,0,0.05,89.80000000000001,0)" xlink:href="#ac"/><use transform="matrix(0.05,0,0,0.05,99.80000000000001,0)" xlink:href="#ad"/><use transform="matrix(0.05,0,0,0.05,108.80000000000001,0)" xlink:href="#ab"/><use transform="matrix(0.05,0,0,0.05,113.80000000000001,0)" xlink:href="#ac"/><use transform="matrix(0.05,0,0,0.05,123.80000000000001,0)" xlink:href="#aa"/><use transform="matrix(0.05,0,0,0.05,129.75,0)" xlink:href="#ae"/></g><path d="M108 0H70L1-190h34L89-25l56-165h34" id="af"/><path d="M206 0h-36l-40-164L89 0H53L-1-190h32L70-26l43-164h34l41 164 42-164h31" id="ag"/><g id="l"><use transform="matrix(0.05,0,0,0.05,0,0)" xlink:href="#Q"/><use transform="matrix(0.05,0,0,0.05,9,0)" xlink:href="#R"/><use transform="matrix(0.05,0,0,0.05,19,0)" xlink:href="#S"/><use transform="matrix(0.05,0,0,0.05,29,0)" xlink:href="#T"/><use transform="matrix(0.05,0,0,0.05,34.95,0)" xlink:href="#af"/><use transform="matrix(0.05,0,0,0.05,43.95,0)" xlink:href="#V"/><use transform="matrix(0.05,0,0,0.05,47.900000000000006,0)" xlink:href="#ae"/><use transform="matrix(0.05,0,0,0.05,57.900000000000006,0)" xlink:href="#ag"/></g><g id="m"><use transform="matrix(0.05,0,0,0.05,0,0)" xlink:href="#Q"/><use transform="matrix(0.05,0,0,0.05,9,0)" xlink:href="#R"/><use transform="matrix(0.05,0,0,0.05,19,0)" xlink:href="#S"/><use transform="matrix(0.05,0,0,0.05,29,0)" xlink:href="#T"/><use transform="matrix(0.05,0,0,0.05,34.95,0)" xlink:href="#ab"/><use transform="matrix(0.05,0,0,0.05,39.95,0)" xlink:href="#ae"/><use transform="matrix(0.05,0,0,0.05,49.95,0)" xlink:href="#Q"/><use transform="matrix(0.05,0,0,0.05,58.95,0)" xlink:href="#ab"/></g><path fill="#fff" d="M135-194c52 0 70 43 70 98 0 56-19 99-73 100-30 1-46-15-58-35L72 0H24l1-261h50v104c11-23 29-37 60-37zM114-30c31 0 40-27 40-66 0-37-7-63-39-63s-41 28-41 65c0 36 8 64 40 64" id="ah"/><g id="n"><use transform="matrix(0.05,0,0,0.05,0,0)" xlink:href="#ah"/><use transform="matrix(0.05,0,0,0.05,10.950000000000001,0)" xlink:href="#J"/><use transform="matrix(0.05,0,0,0.05,15.950000000000001,0)" xlink:href="#A"/></g><path fill="#fff" d="M111-147c44 9 85 22 84 75-1 49-35 65-84 68v31H91V-4C40-5 12-27 5-72l45-8c4 24 15 38 41 40-2-22 4-51-2-69-39-10-76-22-76-72 0-47 35-60 78-63v-23h20v23c47 1 70 23 78 62l-46 7c-4-18-12-32-32-34v62zm-20-63c-33-4-45 46-13 54 4 1 8 2 13 4v-58zm20 170c39 5 53-51 15-60-7-2-7-2-15-4v64" id="ai"/><path fill="#fff" d="M133 41v34c-50 4-88-6-87-53 0-46 9-101-40-98v-34c48 2 40-52 40-98-1-47 37-57 87-53v34c-79-14-6 124-77 134 73 11-4 147 77 134" id="aj"/><path fill="#fff" d="M94-36c2 56 4 113-52 111H8V41C85 54 13-83 84-94c-39-5-38-51-36-97 1-27-12-38-40-36v-34c49-4 87 6 86 53s-8 101 41 98v34c-26 1-42 13-41 40" id="ak"/><g id="o"><use transform="matrix(0.05,0,0,0.05,0,0)" xlink:href="#ai"/><use transform="matrix(0.05,0,0,0.05,10,0)" xlink:href="#aj"/><use transform="matrix(0.05,0,0,0.05,17,0)" xlink:href="#v"/><use transform="matrix(0.05,0,0,0.05,27,0)" xlink:href="#G"/><use transform="matrix(0.05,0,0,0.05,37,0)" xlink:href="#F"/><use transform="matrix(0.05,0,0,0.05,44,0)" xlink:href="#J"/><use transform="matrix(0.05,0,0,0.05,49,0)" xlink:href="#x"/><use transform="matrix(0.05,0,0,0.05,59.95,0)" xlink:href="#H"/><use transform="matrix(0.05,0,0,0.05,65.9,0)" xlink:href="#ak"/></g><path fill="#fff" d="M147 0L96-86 75-71V0H25v-261h50v150l67-79h53l-66 74L201 0h-54" id="al"/><path fill="#fff" d="M121-226c-27-7-43 5-38 36h38v33H83V0H34v-157H6v-33h28c-9-59 32-81 87-68v32" id="am"/><path fill="#fff" d="M25 0v-261h50V0H25" id="an"/><g id="p"><use transform="matrix(0.05,0,0,0.05,0,0)" xlink:href="#N"/><use transform="matrix(0.05,0,0,0.05,12.950000000000001,0)" xlink:href="#w"/><use transform="matrix(0.05,0,0,0.05,23.900000000000002,0)" xlink:href="#G"/><use transform="matrix(0.05,0,0,0.05,33.900000000000006,0)" xlink:href="#al"/><use transform="matrix(0.05,0,0,0.05,43.900000000000006,0)" xlink:href="#C"/><use transform="matrix(0.05,0,0,0.05,53.900000000000006,0)" xlink:href="#F"/><use transform="matrix(0.05,0,0,0.05,60.900000000000006,0)" xlink:href="#am"/><use transform="matrix(0.05,0,0,0.05,66.85000000000001,0)" xlink:href="#J"/><use transform="matrix(0.05,0,0,0.05,71.85000000000001,0)" xlink:href="#an"/><use transform="matrix(0.05,0,0,0.05,76.85000000000001,0)" xlink:href="#C"/></g><g id="q"><use transform="matrix(0.05,0,0,0.05,0,0)" xlink:href="#x"/><use transform="matrix(0.05,0,0,0.05,10.950000000000001,0)" xlink:href="#P"/><use transform="matrix(0.05,0,0,0.05,20.950000000000003,0)" xlink:href="#G"/><use transform="matrix(0.05,0,0,0.05,30.950000000000003,0)" xlink:href="#al"/><use transform="matrix(0.05,0,0,0.05,40.95,0)" xlink:href="#P"/><use transform="matrix(0.05,0,0,0.05,50.95,0)" xlink:href="#I"/><use transform="matrix(0.05,0,0,0.05,61.900000000000006,0)" xlink:href="#C"/><use transform="matrix(0.05,0,0,0.05,71.9,0)" xlink:href="#D"/><use transform="matrix(0.05,0,0,0.05,76.9,0)" xlink:href="#E"/><use transform="matrix(0.05,0,0,0.05,81.9,0)" xlink:href="#v"/><use transform="matrix(0.05,0,0,0.05,91.9,0)" xlink:href="#w"/><use transform="matrix(0.05,0,0,0.05,102.85000000000001,0)" xlink:href="#A"/></g><g id="r"><use transform="matrix(0.05,0,0,0.05,0,0)" xlink:href="#P"/><use transform="matrix(0.05,0,0,0.05,10,0)" xlink:href="#x"/><use transform="matrix(0.05,0,0,0.05,20.950000000000003,0)" xlink:href="#J"/></g><g id="s"><use transform="matrix(0.05,0,0,0.05,0,0)" xlink:href="#B"/><use transform="matrix(0.05,0,0,0.05,10.950000000000001,0)" xlink:href="#w"/><use transform="matrix(0.05,0,0,0.05,21.900000000000002,0)" xlink:href="#z"/><use transform="matrix(0.05,0,0,0.05,37.900000000000006,0)" xlink:href="#P"/><use transform="matrix(0.05,0,0,0.05,47.900000000000006,0)" xlink:href="#J"/><use transform="matrix(0.05,0,0,0.05,52.900000000000006,0)" xlink:href="#A"/></g><path fill="#fff" d="M85 4C-2 5 27-109 22-190h50c7 57-23 150 33 157 60-5 35-97 40-157h50l1 190h-47c-2-12 1-28-3-38-12 25-28 42-61 42" id="ao"/><g id="t"><use transform="matrix(0.05,0,0,0.05,0,0)" xlink:href="#J"/><use transform="matrix(0.05,0,0,0.05,5,0)" xlink:href="#A"/><use transform="matrix(0.05,0,0,0.05,15.950000000000001,0)" xlink:href="#am"/><use transform="matrix(0.05,0,0,0.05,21.900000000000002,0)" xlink:href="#F"/><use transform="matrix(0.05,0,0,0.05,28.900000000000002,0)" xlink:href="#P"/><use transform="matrix(0.05,0,0,0.05,38.900000000000006,0)" xlink:href="#v"/><use transform="matrix(0.05,0,0,0.05,48.900000000000006,0)" xlink:href="#H"/><use transform="matrix(0.05,0,0,0.05,54.85,0)" xlink:href="#F"/><use transform="matrix(0.05,0,0,0.05,61.85,0)" xlink:href="#ao"/><use transform="matrix(0.05,0,0,0.05,72.80000000000001,0)" xlink:href="#G"/><use transform="matrix(0.05,0,0,0.05,82.80000000000001,0)" xlink:href="#H"/><use transform="matrix(0.05,0,0,0.05,88.75000000000001,0)" xlink:href="#ao"/><use transform="matrix(0.05,0,0,0.05,99.70000000000002,0)" xlink:href="#F"/><use transform="matrix(0.05,0,0,0.05,106.7,0)" xlink:href="#C"/></g><path fill="#fff" d="M128 0H69L1-190h53L99-40l48-150h52" id="ap"/><path fill="#fff" d="M231 0h-52l-39-155L100 0H48L-1-190h46L77-45c9-52 24-97 36-145h53l37 145 32-145h46" id="aq"/><g id="u"><use transform="matrix(0.05,0,0,0.05,0,0)" xlink:href="#ap"/><use transform="matrix(0.05,0,0,0.05,10,0)" xlink:href="#J"/><use transform="matrix(0.05,0,0,0.05,15,0)" xlink:href="#C"/><use transform="matrix(0.05,0,0,0.05,25,0)" xlink:href="#aq"/></g></defs></g></svg>