<svg xmlns="http://www.w3.org/2000/svg" xmlns:xlink="http://www.w3.org/1999/xlink" xmlns:lucid="lucid" width="640" height="600"><g transform="translate(-60 -60)" lucid:page-tab-id="0_0"><path d="M80 100v540h600V100" stroke="#834187" stroke-width="2" fill="none"/><path d="M80 80h600v40H80z" stroke="#834187" stroke-width="2" fill="#834187"/><use xlink:href="#a" transform="matrix(1,0,0,1,100,80) translate(241.575 23.6)"/><path d="M320 160l80 40-80 40-80-40z" stroke="#c92d39" stroke-width="2" fill="#c92d39"/><use xlink:href="#b" transform="matrix(1,0,0,1,245,165) translate(48.05 38.6)"/><path d="M318.86 280l80 40-80 40-80-40z" stroke="#c92d39" stroke-width="2" fill="#c92d39"/><use xlink:href="#c" transform="matrix(1,0,0,1,243.8624142405165,285) translate(38.075 38.6)"/><path d="M480 160h160v80c-26.72-13.36-43.36-13.36-53.44-13.36-16 0-37.28 13.36-53.28 13.36-9.92 0-26.72 0-53.28-13.36z" stroke="#0c7cba" stroke-width="2" fill="#0c7cba"/><use xlink:href="#d" transform="matrix(1,0,0,1,485,165) translate(36.05 32.1)"/><path d="M401 200h59.5" stroke="#000" stroke-width="2" fill="none"/><path d="M401.03 201h-.8l.8-.4zm0-1.6l-.8-.4h.8z"/><path d="M475.76 200l-14.26 4.64v-9.28z" stroke="#000" stroke-width="2"/><path d="M168.14 200h53.36" stroke="#000" stroke-width="2" fill="none"/><path d="M168.16 201h-1.14l.12-.96-.04-1.04h1.06z"/><path d="M236.76 200l-14.26 4.64v-9.28z" stroke="#000" stroke-width="2"/><path d="M168.14 200H203v120h17.36" stroke="#000" stroke-width="2" fill="none"/><path d="M168.16 201h-1.14l.12-.96-.04-1.04h1.06z"/><path d="M235.63 320l-14.27 4.64v-9.28z" stroke="#000" stroke-width="2"/><path d="M480 280h160v80c-26.72-13.36-43.36-13.36-53.44-13.36-16 0-37.28 13.36-53.28 13.36-9.92 0-26.72 0-53.28-13.36z" stroke="#0c7cba" stroke-width="2" fill="#0c7cba"/><use xlink:href="#e" transform="matrix(1,0,0,1,485,285) translate(26.074999999999996 32.1)"/><path d="M399.86 320h60.64" stroke="#000" stroke-width="2" fill="none"/><path d="M399.9 321h-.8l.8-.4zm0-1.6l-.8-.4h.8z"/><path d="M475.76 320l-14.26 4.64v-9.28z" stroke="#000" stroke-width="2"/><path d="M240 520h160v80c-26.72-13.36-43.36-13.36-53.44-13.36-16 0-37.28 13.36-53.28 13.36-9.92 0-26.72 0-53.28-13.36z" stroke="#c92d39" stroke-width="4" fill="#c92d39"/><use xlink:href="#f" transform="matrix(1,0,0,1,245,525) translate(48.099999999999994 32.1)"/><path d="M168.14 200h34.43v360h16.93" stroke="#000" stroke-width="2" fill="none"/><path d="M168.16 201h-1.14l.12-.96-.04-1.04h1.06z"/><path d="M234.76 560l-14.26 4.64v-9.28z" stroke="#000" stroke-width="2"/><path d="M166.14 200c0 11.05-8.96 20-20 20-11.05 0-20-8.95-20-20s8.95-20 20-20c11.04 0 20 8.95 20 20z" stroke="#000" stroke-width="2" fill="#834187"/><path d="M318.86 400l80 40-80 40-80-40z" stroke="#c92d39" stroke-width="2" fill="#c92d39"/><use xlink:href="#g" transform="matrix(1,0,0,1,243.8624142405165,405) translate(26.074999999999996 38.6)"/><path d="M168.14 200H203v240h17.36" stroke="#000" stroke-width="2" fill="none"/><path d="M168.16 201h-1.14l.12-.96-.04-1.04h1.06z"/><path d="M235.63 440l-14.27 4.64v-9.28z" stroke="#000" stroke-width="2"/><path d="M478.86 400h160v80c-26.72-13.36-43.36-13.36-53.44-13.36-16 0-37.28 13.36-53.28 13.36-9.92 0-26.72 0-53.28-13.36z" stroke="#0c7cba" stroke-width="2" fill="#0c7cba"/><use xlink:href="#h" transform="matrix(1,0,0,1,483.8624142405165,405) translate(29.525 32.1)"/><path d="M399.86 440h59.5" stroke="#000" stroke-width="2" fill="none"/><path d="M399.9 441h-.8l.8-.4zm0-1.6l-.8-.4h.8z"/><path d="M474.63 440l-14.27 4.64v-9.28z" stroke="#000" stroke-width="2"/><defs><path fill="#fff" d="M137-138c1-29-70-34-71-4 15 46 118 7 119 86 1 83-164 76-172 9l43-7c4 19 20 25 44 25 33 8 57-30 24-41C81-84 22-81 20-136c-2-80 154-74 161-7" id="i"/><path fill="#fff" d="M110-194c64 0 96 36 96 99 0 64-35 99-97 99-61 0-95-36-95-99 0-62 34-99 96-99zm-1 164c35 0 45-28 45-65 0-40-10-65-43-65-34 0-45 26-45 65 0 36 10 65 43 65" id="j"/><path fill="#fff" d="M135-194c53 0 70 44 70 98 0 56-19 98-73 100-31 1-45-17-59-34 3 33 2 69 2 105H25l-1-265h48c2 10 0 23 3 31 11-24 29-35 60-35zM114-30c33 0 39-31 40-66 0-38-9-64-40-64-56 0-55 130 0 130" id="k"/><path fill="#fff" d="M14-72v-43h91v43H14" id="l"/><path fill="#fff" d="M128 0H69L1-190h53L99-40l48-150h52" id="m"/><path fill="#fff" d="M25-224v-37h50v37H25zM25 0v-190h50V0H25" id="n"/><path fill="#fff" d="M185-48c-13 30-37 53-82 52C43 2 14-33 14-96s30-98 90-98c62 0 83 45 84 108H66c0 31 8 55 39 56 18 0 30-7 34-22zm-45-69c5-46-57-63-70-21-2 6-4 13-4 21h74" id="o"/><path fill="#fff" d="M231 0h-52l-39-155L100 0H48L-1-190h46L77-45c9-52 24-97 36-145h53l37 145 32-145h46" id="p"/><g id="a"><use transform="matrix(0.05,0,0,0.05,0,0)" xlink:href="#i"/><use transform="matrix(0.05,0,0,0.05,10,0)" xlink:href="#j"/><use transform="matrix(0.05,0,0,0.05,20.950000000000003,0)" xlink:href="#k"/><use transform="matrix(0.05,0,0,0.05,31.900000000000006,0)" xlink:href="#l"/><use transform="matrix(0.05,0,0,0.05,37.85000000000001,0)" xlink:href="#m"/><use transform="matrix(0.05,0,0,0.05,47.85000000000001,0)" xlink:href="#n"/><use transform="matrix(0.05,0,0,0.05,52.85,0)" xlink:href="#o"/><use transform="matrix(0.05,0,0,0.05,62.85,0)" xlink:href="#p"/></g><path fill="#fff" d="M114-157C55-157 80-60 75 0H25v-261h50l-1 109c12-26 28-41 61-42 86-1 58 113 63 194h-50c-7-57 23-157-34-157" id="q"/><path fill="#fff" d="M25 0v-261h50V0H25" id="r"/><path fill="#fff" d="M135-150c-39-12-60 13-60 57V0H25l-1-190h47c2 13-1 29 3 40 6-28 27-53 61-41v41" id="s"/><g id="b"><use transform="matrix(0.05,0,0,0.05,0,0)" xlink:href="#q"/><use transform="matrix(0.05,0,0,0.05,10.950000000000001,0)" xlink:href="#o"/><use transform="matrix(0.05,0,0,0.05,20.950000000000003,0)" xlink:href="#r"/><use transform="matrix(0.05,0,0,0.05,25.950000000000003,0)" xlink:href="#k"/><use transform="matrix(0.05,0,0,0.05,36.900000000000006,0)" xlink:href="#o"/><use transform="matrix(0.05,0,0,0.05,46.900000000000006,0)" xlink:href="#s"/></g><path fill="#fff" d="M115-3C79 11 28 4 28-45v-112H4v-33h27l15-45h31v45h36v33H77v99c-1 23 16 31 38 25v30" id="t"/><path fill="#fff" d="M220-157c-53 9-28 100-34 157h-49v-107c1-27-5-49-29-50C55-147 81-57 75 0H25l-1-190h47c2 12-1 28 3 38 10-53 101-56 108 0 13-22 24-43 59-42 82 1 51 116 57 194h-49v-107c-1-25-5-48-29-50" id="u"/><path fill="#fff" d="M133-34C117-15 103 5 69 4 32 3 11-16 11-54c-1-60 55-63 116-61 1-26-3-47-28-47-18 1-26 9-28 27l-52-2c7-38 36-58 82-57s74 22 75 68l1 82c-1 14 12 18 25 15v27c-30 8-71 5-69-32zm-48 3c29 0 43-24 42-57-32 0-66-3-65 30 0 17 8 27 23 27" id="v"/><g id="c"><use transform="matrix(0.05,0,0,0.05,0,0)" xlink:href="#t"/><use transform="matrix(0.05,0,0,0.05,5.95,0)" xlink:href="#o"/><use transform="matrix(0.05,0,0,0.05,15.949999999999998,0)" xlink:href="#u"/><use transform="matrix(0.05,0,0,0.05,31.950000000000003,0)" xlink:href="#k"/><use transform="matrix(0.05,0,0,0.05,42.9,0)" xlink:href="#r"/><use transform="matrix(0.05,0,0,0.05,47.9,0)" xlink:href="#v"/><use transform="matrix(0.05,0,0,0.05,57.900000000000006,0)" xlink:href="#t"/><use transform="matrix(0.05,0,0,0.05,63.85,0)" xlink:href="#o"/></g><path fill="#fff" d="M111-147c44 9 85 22 84 75-1 49-35 65-84 68v31H91V-4C40-5 12-27 5-72l45-8c4 24 15 38 41 40-2-22 4-51-2-69-39-10-76-22-76-72 0-47 35-60 78-63v-23h20v23c47 1 70 23 78 62l-46 7c-4-18-12-32-32-34v62zm-20-63c-33-4-45 46-13 54 4 1 8 2 13 4v-58zm20 170c39 5 53-51 15-60-7-2-7-2-15-4v64" id="w"/><path fill="#fff" d="M133 41v34c-50 4-88-6-87-53 0-46 9-101-40-98v-34c48 2 40-52 40-98-1-47 37-57 87-53v34c-79-14-6 124-77 134 73 11-4 147 77 134" id="x"/><path fill="#fff" d="M94-36c2 56 4 113-52 111H8V41C85 54 13-83 84-94c-39-5-38-51-36-97 1-27-12-38-40-36v-34c49-4 87 6 86 53s-8 101 41 98v34c-26 1-42 13-41 40" id="y"/><g id="d"><use transform="matrix(0.05,0,0,0.05,0,0)" xlink:href="#w"/><use transform="matrix(0.05,0,0,0.05,10,0)" xlink:href="#x"/><use transform="matrix(0.05,0,0,0.05,17,0)" xlink:href="#q"/><use transform="matrix(0.05,0,0,0.05,27.950000000000003,0)" xlink:href="#o"/><use transform="matrix(0.05,0,0,0.05,37.95,0)" xlink:href="#r"/><use transform="matrix(0.05,0,0,0.05,42.95,0)" xlink:href="#k"/><use transform="matrix(0.05,0,0,0.05,53.900000000000006,0)" xlink:href="#o"/><use transform="matrix(0.05,0,0,0.05,63.900000000000006,0)" xlink:href="#s"/><use transform="matrix(0.05,0,0,0.05,70.9,0)" xlink:href="#y"/></g><g id="e"><use transform="matrix(0.05,0,0,0.05,0,0)" xlink:href="#w"/><use transform="matrix(0.05,0,0,0.05,10,0)" xlink:href="#x"/><use transform="matrix(0.05,0,0,0.05,17,0)" xlink:href="#t"/><use transform="matrix(0.05,0,0,0.05,22.95,0)" xlink:href="#o"/><use transform="matrix(0.05,0,0,0.05,32.95,0)" xlink:href="#u"/><use transform="matrix(0.05,0,0,0.05,48.95,0)" xlink:href="#k"/><use transform="matrix(0.05,0,0,0.05,59.900000000000006,0)" xlink:href="#r"/><use transform="matrix(0.05,0,0,0.05,64.9,0)" xlink:href="#v"/><use transform="matrix(0.05,0,0,0.05,74.9,0)" xlink:href="#t"/><use transform="matrix(0.05,0,0,0.05,80.85000000000001,0)" xlink:href="#o"/><use transform="matrix(0.05,0,0,0.05,90.85000000000001,0)" xlink:href="#y"/></g><path fill="#fff" d="M190-63c-7 42-38 67-86 67-59 0-84-38-90-98-12-110 154-137 174-36l-49 2c-2-19-15-32-35-32-30 0-35 28-38 64-6 74 65 87 74 30" id="z"/><path fill="#fff" d="M135-194c87-1 58 113 63 194h-50c-7-57 23-157-34-157-59 0-34 97-39 157H25l-1-190h47c2 12-1 28 3 38 12-26 28-41 61-42" id="A"/><path fill="#fff" d="M121-226c-27-7-43 5-38 36h38v33H83V0H34v-157H6v-33h28c-9-59 32-81 87-68v32" id="B"/><path fill="#fff" d="M195-6C206 82 75 100 31 46c-4-6-6-13-8-21l49-6c3 16 16 24 34 25 40 0 42-37 40-79-11 22-30 35-61 35-53 0-70-43-70-97 0-56 18-96 73-97 30 0 46 14 59 34l2-30h47zm-90-29c32 0 41-27 41-63 0-35-9-62-40-62-32 0-39 29-40 63 0 36 9 62 39 62" id="C"/><g id="f"><use transform="matrix(0.05,0,0,0.05,0,0)" xlink:href="#z"/><use transform="matrix(0.05,0,0,0.05,10,0)" xlink:href="#j"/><use transform="matrix(0.05,0,0,0.05,20.950000000000003,0)" xlink:href="#A"/><use transform="matrix(0.05,0,0,0.05,31.900000000000006,0)" xlink:href="#B"/><use transform="matrix(0.05,0,0,0.05,37.85000000000001,0)" xlink:href="#n"/><use transform="matrix(0.05,0,0,0.05,42.85000000000001,0)" xlink:href="#C"/></g><path fill="#fff" d="M88-194c31-1 46 15 58 34l-1-101h50l1 261h-48c-2-10 0-23-3-31C134-8 116 4 84 4 32 4 16-41 15-95c0-56 19-97 73-99zm17 164c33 0 40-30 41-66 1-37-9-64-41-64s-38 30-39 65c0 43 13 65 39 65" id="D"/><g id="g"><use transform="matrix(0.05,0,0,0.05,0,0)" xlink:href="#m"/><use transform="matrix(0.05,0,0,0.05,10,0)" xlink:href="#n"/><use transform="matrix(0.05,0,0,0.05,15,0)" xlink:href="#o"/><use transform="matrix(0.05,0,0,0.05,25,0)" xlink:href="#p"/><use transform="matrix(0.05,0,0,0.05,39,0)" xlink:href="#l"/><use transform="matrix(0.05,0,0,0.05,44.95,0)" xlink:href="#u"/><use transform="matrix(0.05,0,0,0.05,60.95,0)" xlink:href="#j"/><use transform="matrix(0.05,0,0,0.05,71.9,0)" xlink:href="#D"/><use transform="matrix(0.05,0,0,0.05,82.85000000000001,0)" xlink:href="#o"/><use transform="matrix(0.05,0,0,0.05,92.85000000000001,0)" xlink:href="#r"/></g><g id="h"><use transform="matrix(0.05,0,0,0.05,0,0)" xlink:href="#w"/><use transform="matrix(0.05,0,0,0.05,10,0)" xlink:href="#x"/><use transform="matrix(0.05,0,0,0.05,17,0)" xlink:href="#i"/><use transform="matrix(0.05,0,0,0.05,27,0)" xlink:href="#z"/><use transform="matrix(0.05,0,0,0.05,37,0)" xlink:href="#q"/><use transform="matrix(0.05,0,0,0.05,47.95,0)" xlink:href="#o"/><use transform="matrix(0.05,0,0,0.05,57.95,0)" xlink:href="#u"/><use transform="matrix(0.05,0,0,0.05,73.95,0)" xlink:href="#v"/><use transform="matrix(0.05,0,0,0.05,83.95,0)" xlink:href="#y"/></g></defs></g></svg>