<svg xmlns="http://www.w3.org/2000/svg" xmlns:xlink="http://www.w3.org/1999/xlink" xmlns:lucid="lucid" width="640" height="320"><g transform="translate(-60 -60)" lucid:page-tab-id="0_0"><path d="M80 100v260h600V100" stroke="#834187" stroke-width="2" fill="none"/><path d="M80 80h600v40H80z" stroke="#834187" stroke-width="2" fill="#834187"/><use xlink:href="#a" transform="matrix(1,0,0,1,100,80) translate(237.625 23.6)"/><path d="M606.86 160c17.68 0 32 13.43 32 30s-14.32 30-32 30h-96c-17.67 0-32-13.43-32-30s14.33-30 32-30z" stroke="#c92d39" stroke-width="4" fill="#c92d39"/><use xlink:href="#b" transform="matrix(1,0,0,1,483.8624142405165,165) translate(51.525 29.1)"/><path d="M368 260c17.67 0 32 13.43 32 30s-14.33 30-32 30h-96c-17.67 0-32-13.43-32-30s14.33-30 32-30z" stroke="#c92d39" stroke-width="4" fill="#c92d39"/><use xlink:href="#c" transform="matrix(1,0,0,1,245,265) translate(56.55 28.6)"/><path d="M366.86 160c17.68 0 32 13.43 32 30s-14.32 30-32 30h-96c-17.67 0-32-13.43-32-30s14.33-30 32-30z" stroke="#c92d39" stroke-width="4" fill="#c92d39"/><use xlink:href="#d" transform="matrix(1,0,0,1,243.8624142405165,165) translate(54.025 29.1)"/><path d="M401.86 190h56.5" stroke="#000" stroke-width="2" fill="none"/><path d="M401.9 191h-1.1l.06-.93v-.4l-.06-.67h1.1z"/><path d="M473.63 190l-14.27 4.64v-9.28z" stroke="#000" stroke-width="2"/><path d="M160.86 190h57.5" stroke="#000" stroke-width="2" fill="none"/><path d="M160.9 191h-1.15l.1-.96-.02-1.04h1.06z"/><path d="M233.63 190l-14.27 4.64v-9.28z" stroke="#000" stroke-width="2"/><path d="M160.86 190h38.07v100h20.57" stroke="#000" stroke-width="2" fill="none"/><path d="M160.9 191h-1.15l.1-.96-.02-1.04h1.06z"/><path d="M234.76 290l-14.26 4.64v-9.28z" stroke="#000" stroke-width="2"/><path d="M158.86 190c0 11.05-8.95 20-20 20-11.04 0-20-8.95-20-20s8.96-20 20-20c11.05 0 20 8.95 20 20z" stroke="#000" stroke-width="2" fill="#834187"/><defs><path fill="#fff" d="M137-138c1-29-70-34-71-4 15 46 118 7 119 86 1 83-164 76-172 9l43-7c4 19 20 25 44 25 33 8 57-30 24-41C81-84 22-81 20-136c-2-80 154-74 161-7" id="e"/><path fill="#fff" d="M110-194c64 0 96 36 96 99 0 64-35 99-97 99-61 0-95-36-95-99 0-62 34-99 96-99zm-1 164c35 0 45-28 45-65 0-40-10-65-43-65-34 0-45 26-45 65 0 36 10 65 43 65" id="f"/><path fill="#fff" d="M135-194c53 0 70 44 70 98 0 56-19 98-73 100-31 1-45-17-59-34 3 33 2 69 2 105H25l-1-265h48c2 10 0 23 3 31 11-24 29-35 60-35zM114-30c33 0 39-31 40-66 0-38-9-64-40-64-56 0-55 130 0 130" id="g"/><path fill="#fff" d="M14-72v-43h91v43H14" id="h"/><path fill="#fff" d="M185-48c-13 30-37 53-82 52C43 2 14-33 14-96s30-98 90-98c62 0 83 45 84 108H66c0 31 8 55 39 56 18 0 30-7 34-22zm-45-69c5-46-57-63-70-21-2 6-4 13-4 21h74" id="i"/><path fill="#fff" d="M128 0H69L1-190h53L99-40l48-150h52" id="j"/><path fill="#fff" d="M135-194c87-1 58 113 63 194h-50c-7-57 23-157-34-157-59 0-34 97-39 157H25l-1-190h47c2 12-1 28 3 38 12-26 28-41 61-42" id="k"/><path fill="#fff" d="M115-3C79 11 28 4 28-45v-112H4v-33h27l15-45h31v45h36v33H77v99c-1 23 16 31 38 25v30" id="l"/><g id="a"><use transform="matrix(0.05,0,0,0.05,0,0)" xlink:href="#e"/><use transform="matrix(0.05,0,0,0.05,10,0)" xlink:href="#f"/><use transform="matrix(0.05,0,0,0.05,20.950000000000003,0)" xlink:href="#g"/><use transform="matrix(0.05,0,0,0.05,31.900000000000006,0)" xlink:href="#h"/><use transform="matrix(0.05,0,0,0.05,37.85000000000001,0)" xlink:href="#i"/><use transform="matrix(0.05,0,0,0.05,47.85000000000001,0)" xlink:href="#j"/><use transform="matrix(0.05,0,0,0.05,57.85,0)" xlink:href="#i"/><use transform="matrix(0.05,0,0,0.05,67.85000000000001,0)" xlink:href="#k"/><use transform="matrix(0.05,0,0,0.05,78.80000000000001,0)" xlink:href="#l"/></g><path fill="#fff" d="M133-34C117-15 103 5 69 4 32 3 11-16 11-54c-1-60 55-63 116-61 1-26-3-47-28-47-18 1-26 9-28 27l-52-2c7-38 36-58 82-57s74 22 75 68l1 82c-1 14 12 18 25 15v27c-30 8-71 5-69-32zm-48 3c29 0 43-24 42-57-32 0-66-3-65 30 0 17 8 27 23 27" id="m"/><path fill="#fff" d="M220-157c-53 9-28 100-34 157h-49v-107c1-27-5-49-29-50C55-147 81-57 75 0H25l-1-190h47c2 12-1 28 3 38 10-53 101-56 108 0 13-22 24-43 59-42 82 1 51 116 57 194h-49v-107c-1-25-5-48-29-50" id="n"/><g id="b"><use transform="matrix(0.05,0,0,0.05,0,0)" xlink:href="#k"/><use transform="matrix(0.05,0,0,0.05,10.950000000000001,0)" xlink:href="#m"/><use transform="matrix(0.05,0,0,0.05,20.950000000000003,0)" xlink:href="#n"/><use transform="matrix(0.05,0,0,0.05,36.95,0)" xlink:href="#i"/></g><path fill="#fff" d="M88-194c31-1 46 15 58 34l-1-101h50l1 261h-48c-2-10 0-23-3-31C134-8 116 4 84 4 32 4 16-41 15-95c0-56 19-97 73-99zm17 164c33 0 40-30 41-66 1-37-9-64-41-64s-38 30-39 65c0 43 13 65 39 65" id="o"/><g id="c"><use transform="matrix(0.05,0,0,0.05,0,0)" xlink:href="#o"/><use transform="matrix(0.05,0,0,0.05,10.950000000000001,0)" xlink:href="#m"/><use transform="matrix(0.05,0,0,0.05,20.950000000000003,0)" xlink:href="#l"/><use transform="matrix(0.05,0,0,0.05,26.900000000000002,0)" xlink:href="#m"/></g><g id="d"><use transform="matrix(0.05,0,0,0.05,0,0)" xlink:href="#n"/><use transform="matrix(0.05,0,0,0.05,16,0)" xlink:href="#i"/><use transform="matrix(0.05,0,0,0.05,26,0)" xlink:href="#l"/><use transform="matrix(0.05,0,0,0.05,31.950000000000003,0)" xlink:href="#m"/></g></defs></g></svg>