<svg xmlns="http://www.w3.org/2000/svg" xmlns:xlink="http://www.w3.org/1999/xlink" xmlns:lucid="lucid" width="1120" height="1080"><g transform="translate(-60 -60)" lucid:page-tab-id="0_0"><path d="M238.86 160h160v80h-160z" stroke="#c92d39" stroke-width="2" fill="#c92d39"/><use xlink:href="#a" transform="matrix(1,0,0,1,243.8624142405165,165) translate(32.099999999999994 38.6)"/><path d="M238.86 280h160v80h-160z" stroke="#c92d39" stroke-width="2" fill="#c92d39"/><use xlink:href="#b" transform="matrix(1,0,0,1,243.8624142405165,285) translate(30.099999999999994 38.6)"/><path d="M480 460h160v80H480z" stroke="#c92d39" stroke-width="2" fill="#c92d39"/><use xlink:href="#c" transform="matrix(1,0,0,1,485,465) translate(61.075 38.6)"/><path d="M720 400h160v80H720z" stroke="#c92d39" stroke-width="2" fill="#c92d39"/><use xlink:href="#d" transform="matrix(1,0,0,1,725,405) translate(32.574999999999996 38.6)"/><path d="M720 520h160v80H720z" stroke="#c92d39" stroke-width="2" fill="#c92d39"/><use xlink:href="#e" transform="matrix(1,0,0,1,725,525) translate(51.55 38.6)"/><path d="M480 640h160v80H480z" stroke="#c92d39" stroke-width="2" fill="#c92d39"/><use xlink:href="#f" transform="matrix(1,0,0,1,485,645) translate(51.075 38.6)"/><path d="M480 820h160v80H480z" stroke="#c92d39" stroke-width="2" fill="#c92d39"/><use xlink:href="#g" transform="matrix(1,0,0,1,485,825) translate(22.624999999999993 38.6)"/><path d="M960 400h160v80c-26.72-13.36-43.36-13.36-53.44-13.36-16 0-37.28 13.36-53.28 13.36-9.92 0-26.72 0-53.28-13.36z" stroke="#0c7cba" stroke-width="2" fill="#0c7cba"/><use xlink:href="#h" transform="matrix(1,0,0,1,965,405) translate(20.574999999999996 32.1)"/><path d="M960 520h160v80c-26.72-13.36-43.36-13.36-53.44-13.36-16 0-37.28 13.36-53.28 13.36-9.92 0-26.72 0-53.28-13.36z" stroke="#0c7cba" stroke-width="2" fill="#0c7cba"/><use xlink:href="#i" transform="matrix(1,0,0,1,965,525) translate(39.55 32.1)"/><path d="M720 820h160v80c-26.72-13.36-43.36-13.36-53.44-13.36-16 0-37.28 13.36-53.28 13.36-9.92 0-26.72 0-53.28-13.36z" stroke="#0c7cba" stroke-width="2" fill="#0c7cba"/><use xlink:href="#j" transform="matrix(1,0,0,1,725,825) translate(10.625 32.1)"/><path d="M642 860h58.5" stroke="#000" stroke-width="2" fill="none"/><path d="M642.03 861H641v-2h1.03z"/><path d="M715.76 860l-14.26 4.64v-9.28z" stroke="#000" stroke-width="2"/><path d="M642 500h38v-60h20.5" stroke="#000" stroke-width="2" fill="none"/><path d="M642.03 501H641v-2h1.03z"/><path d="M715.76 440l-14.26 4.64v-9.28z" stroke="#000" stroke-width="2"/><path d="M642 500h38v60h20.5" stroke="#000" stroke-width="2" fill="none"/><path d="M642.03 501H641v-2h1.03z"/><path d="M715.76 560l-14.26 4.64v-9.28z" stroke="#000" stroke-width="2"/><path d="M882 560h58.5" stroke="#000" stroke-width="2" fill="none"/><path d="M882.03 561H881v-2h1.03z"/><path d="M955.76 560l-14.26 4.64v-9.28z" stroke="#000" stroke-width="2"/><path d="M882 440h58.5" stroke="#000" stroke-width="2" fill="none"/><path d="M882.03 441H881v-2h1.03z"/><path d="M955.76 440l-14.26 4.64v-9.28z" stroke="#000" stroke-width="2"/><path d="M160.86 200h58.5" stroke="#000" stroke-width="2" fill="none"/><path d="M160.9 201h-1.15l.1-.96-.02-1.04h1.06z"/><path d="M234.63 200l-14.27 4.64v-9.28z" stroke="#000" stroke-width="2"/><path d="M160.86 200h38v120h20.5" stroke="#000" stroke-width="2" fill="none"/><path d="M160.9 201h-1.15l.1-.96-.02-1.04h1.06z"/><path d="M234.63 320l-14.27 4.64v-9.28z" stroke="#000" stroke-width="2"/><path d="M478.86 280h160v80c-26.72-13.36-43.36-13.36-53.44-13.36-16 0-37.28 13.36-53.28 13.36-9.92 0-26.72 0-53.28-13.36z" stroke="#0c7cba" stroke-width="2" fill="#0c7cba"/><use xlink:href="#k" transform="matrix(1,0,0,1,483.8624142405165,285) translate(18.099999999999994 32.1)"/><path d="M400.86 320h58.5" stroke="#000" stroke-width="2" fill="none"/><path d="M400.9 321h-1.04v-2h1.03z"/><path d="M474.63 320l-14.27 4.64v-9.28z" stroke="#000" stroke-width="2"/><path d="M478.86 160h160v80c-26.72-13.36-43.36-13.36-53.44-13.36-16 0-37.28 13.36-53.28 13.36-9.92 0-26.72 0-53.28-13.36z" stroke="#0c7cba" stroke-width="2" fill="#0c7cba"/><use xlink:href="#l" transform="matrix(1,0,0,1,483.8624142405165,165) translate(20.099999999999994 32.1)"/><path d="M400.86 200h58.5" stroke="#000" stroke-width="2" fill="none"/><path d="M400.9 201h-1.04v-2h1.03z"/><path d="M474.63 200l-14.27 4.64v-9.28z" stroke="#000" stroke-width="2"/><path d="M720 640h160v80c-26.72-13.36-43.36-13.36-53.44-13.36-16 0-37.28 13.36-53.28 13.36-9.92 0-26.72 0-53.28-13.36z" stroke="#0c7cba" stroke-width="2" fill="#0c7cba"/><use xlink:href="#m" transform="matrix(1,0,0,1,725,645) translate(39.074999999999996 32.1)"/><path d="M642 680h58.5" stroke="#000" stroke-width="2" fill="none"/><path d="M642.03 681H641v-2h1.03z"/><path d="M715.76 680l-14.26 4.64v-9.28z" stroke="#000" stroke-width="2"/><path d="M1040 760l80 40-80 40-80-40z" fill="#fff"/><path d="M1055 767.5l10 5m10 5l10 5m10 5l10 5m10 5l5 2.5-5 2.5m-10 5l-10 5m-10 5l-10 5m-10 5l-10 5m-10 5l-5 2.5-5-2.5m-10-5l-10-5m-10-5l-10-5m-10-5l-10-5m-10-5l-5-2.5 5-2.5m10-5l10-5m10-5l10-5m10-5l10-5m10-5l5-2.5 5 2.5" stroke="#c92d39" stroke-width="3" fill="none"/><use xlink:href="#n" transform="matrix(1,0,0,1,965,765) translate(37.574999999999996 38.6)"/><path d="M1040 880l80 40-80 40-80-40z" fill="#fff"/><path d="M1055 887.5l10 5m10 5l10 5m10 5l10 5m10 5l5 2.5-5 2.5m-10 5l-10 5m-10 5l-10 5m-10 5l-10 5m-10 5l-5 2.5-5-2.5m-10-5l-10-5m-10-5l-10-5m-10-5l-10-5m-10-5l-5-2.5 5-2.5m10-5l10-5m10-5l10-5m10-5l10-5m10-5l5-2.5 5 2.5" stroke="#c92d39" stroke-width="3" fill="none"/><use xlink:href="#o" transform="matrix(1,0,0,1,965,885) translate(55.55 38.6)"/><path d="M882 860h38.5v-60h21" stroke="#000" stroke-width="2" fill="none"/><path d="M882.03 861H881v-2h1.03z"/><path d="M956.76 800l-14.26 4.64v-9.28z" stroke="#000" stroke-width="2"/><path d="M882 860h38.5v60h21" stroke="#000" stroke-width="2" fill="none"/><path d="M882.03 861H881v-2h1.03z"/><path d="M956.76 920l-14.26 4.64v-9.28z" stroke="#000" stroke-width="2"/><path d="M80 100v1020h1080V100" stroke="#834187" stroke-width="2" fill="none"/><path d="M80 80h1080v40H80z" stroke="#834187" stroke-width="2" fill="#834187"/><use xlink:href="#p" transform="matrix(1,0,0,1,100,80) translate(469.15 23.6)"/><path d="M240 1000h160v80c-26.72-13.36-43.36-13.36-53.44-13.36-16 0-37.28 13.36-53.28 13.36-9.92 0-26.72 0-53.28-13.36z" stroke="#c92d39" stroke-width="4" fill="#c92d39"/><use xlink:href="#q" transform="matrix(1,0,0,1,245,1005.0000000000009) translate(48.099999999999994 32.1)"/><path d="M160.86 200h38.07v840h20.57" stroke="#000" stroke-width="2" fill="none"/><path d="M160.9 201h-1.15l.1-.96-.02-1.04h1.06z"/><path d="M234.76 1040l-14.26 4.64v-9.28z" stroke="#000" stroke-width="2"/><path d="M158.86 200c0 11.05-8.95 20-20 20-11.04 0-20-8.95-20-20s8.96-20 20-20c11.05 0 20 8.95 20 20z" stroke="#000" stroke-width="2" fill="#834187"/><path d="M238.86 640h160v80h-160z" stroke="#c92d39" stroke-width="2" fill="#c92d39"/><use xlink:href="#r" transform="matrix(1,0,0,1,243.8624142405165,645) translate(41.525 38.6)"/><path d="M160.86 200h38v480h20.5" stroke="#000" stroke-width="2" fill="none"/><path d="M160.9 201h-1.15l.1-.96-.02-1.04h1.06z"/><path d="M234.63 680l-14.27 4.64v-9.28z" stroke="#000" stroke-width="2"/><path d="M400.86 680h38.57V500h21.07" stroke="#000" stroke-width="2" fill="none"/><path d="M400.9 681h-1.04v-2h1.03z"/><path d="M475.76 500l-14.26 4.64v-9.28z" stroke="#000" stroke-width="2"/><path d="M400.86 680h38.57v180h21.07" stroke="#000" stroke-width="2" fill="none"/><path d="M400.9 681h-1.04v-2h1.03z"/><path d="M475.76 860l-14.26 4.64v-9.28z" stroke="#000" stroke-width="2"/><path d="M400.86 680h59.64" stroke="#000" stroke-width="2" fill="none"/><path d="M400.9 681h-1.04v-2h1.03z"/><path d="M475.76 680l-14.26 4.64v-9.28z" stroke="#000" stroke-width="2"/><defs><path fill="#fff" d="M133-34C117-15 103 5 69 4 32 3 11-16 11-54c-1-60 55-63 116-61 1-26-3-47-28-47-18 1-26 9-28 27l-52-2c7-38 36-58 82-57s74 22 75 68l1 82c-1 14 12 18 25 15v27c-30 8-71 5-69-32zm-48 3c29 0 43-24 42-57-32 0-66-3-65 30 0 17 8 27 23 27" id="s"/><path fill="#fff" d="M195-6C206 82 75 100 31 46c-4-6-6-13-8-21l49-6c3 16 16 24 34 25 40 0 42-37 40-79-11 22-30 35-61 35-53 0-70-43-70-97 0-56 18-96 73-97 30 0 46 14 59 34l2-30h47zm-90-29c32 0 41-27 41-63 0-35-9-62-40-62-32 0-39 29-40 63 0 36 9 62 39 62" id="t"/><path fill="#fff" d="M135-150c-39-12-60 13-60 57V0H25l-1-190h47c2 13-1 29 3 40 6-28 27-53 61-41v41" id="u"/><path fill="#fff" d="M185-48c-13 30-37 53-82 52C43 2 14-33 14-96s30-98 90-98c62 0 83 45 84 108H66c0 31 8 55 39 56 18 0 30-7 34-22zm-45-69c5-46-57-63-70-21-2 6-4 13-4 21h74" id="v"/><path fill="#fff" d="M115-3C79 11 28 4 28-45v-112H4v-33h27l15-45h31v45h36v33H77v99c-1 23 16 31 38 25v30" id="w"/><g id="a"><use transform="matrix(0.05,0,0,0.05,0,0)" xlink:href="#s"/><use transform="matrix(0.05,0,0,0.05,10,0)" xlink:href="#t"/><use transform="matrix(0.05,0,0,0.05,20.950000000000003,0)" xlink:href="#t"/><use transform="matrix(0.05,0,0,0.05,31.900000000000006,0)" xlink:href="#u"/><use transform="matrix(0.05,0,0,0.05,38.900000000000006,0)" xlink:href="#v"/><use transform="matrix(0.05,0,0,0.05,48.900000000000006,0)" xlink:href="#t"/><use transform="matrix(0.05,0,0,0.05,59.85,0)" xlink:href="#s"/><use transform="matrix(0.05,0,0,0.05,69.85000000000001,0)" xlink:href="#w"/><use transform="matrix(0.05,0,0,0.05,75.80000000000001,0)" xlink:href="#v"/></g><path fill="#fff" d="M190-63c-7 42-38 67-86 67-59 0-84-38-90-98-12-110 154-137 174-36l-49 2c-2-19-15-32-35-32-30 0-35 28-38 64-6 74 65 87 74 30" id="x"/><path fill="#fff" d="M110-194c64 0 96 36 96 99 0 64-35 99-97 99-61 0-95-36-95-99 0-62 34-99 96-99zm-1 164c35 0 45-28 45-65 0-40-10-65-43-65-34 0-45 26-45 65 0 36 10 65 43 65" id="y"/><path fill="#fff" d="M220-157c-53 9-28 100-34 157h-49v-107c1-27-5-49-29-50C55-147 81-57 75 0H25l-1-190h47c2 12-1 28 3 38 10-53 101-56 108 0 13-22 24-43 59-42 82 1 51 116 57 194h-49v-107c-1-25-5-48-29-50" id="z"/><path fill="#fff" d="M135-194c53 0 70 44 70 98 0 56-19 98-73 100-31 1-45-17-59-34 3 33 2 69 2 105H25l-1-265h48c2 10 0 23 3 31 11-24 29-35 60-35zM114-30c33 0 39-31 40-66 0-38-9-64-40-64-56 0-55 130 0 130" id="A"/><path fill="#fff" d="M137-138c1-29-70-34-71-4 15 46 118 7 119 86 1 83-164 76-172 9l43-7c4 19 20 25 44 25 33 8 57-30 24-41C81-84 22-81 20-136c-2-80 154-74 161-7" id="B"/><path fill="#fff" d="M25-224v-37h50v37H25zM25 0v-190h50V0H25" id="C"/><g id="b"><use transform="matrix(0.05,0,0,0.05,0,0)" xlink:href="#x"/><use transform="matrix(0.05,0,0,0.05,10,0)" xlink:href="#y"/><use transform="matrix(0.05,0,0,0.05,20.950000000000003,0)" xlink:href="#z"/><use transform="matrix(0.05,0,0,0.05,36.95,0)" xlink:href="#A"/><use transform="matrix(0.05,0,0,0.05,47.900000000000006,0)" xlink:href="#y"/><use transform="matrix(0.05,0,0,0.05,58.85,0)" xlink:href="#B"/><use transform="matrix(0.05,0,0,0.05,68.85000000000001,0)" xlink:href="#C"/><use transform="matrix(0.05,0,0,0.05,73.85000000000001,0)" xlink:href="#w"/><use transform="matrix(0.05,0,0,0.05,79.80000000000001,0)" xlink:href="#v"/></g><path fill="#fff" d="M88-194c31-1 46 15 58 34l-1-101h50l1 261h-48c-2-10 0-23-3-31C134-8 116 4 84 4 32 4 16-41 15-95c0-56 19-97 73-99zm17 164c33 0 40-30 41-66 1-37-9-64-41-64s-38 30-39 65c0 43 13 65 39 65" id="D"/><g id="c"><use transform="matrix(0.05,0,0,0.05,0,0)" xlink:href="#D"/><use transform="matrix(0.05,0,0,0.05,10.950000000000001,0)" xlink:href="#w"/><use transform="matrix(0.05,0,0,0.05,16.900000000000002,0)" xlink:href="#y"/></g><path fill="#fff" d="M135-194c87-1 58 113 63 194h-50c-7-57 23-157-34-157-59 0-34 97-39 157H25l-1-190h47c2 12-1 28 3 38 12-26 28-41 61-42" id="E"/><g id="d"><use transform="matrix(0.05,0,0,0.05,0,0)" xlink:href="#x"/><use transform="matrix(0.05,0,0,0.05,10,0)" xlink:href="#y"/><use transform="matrix(0.05,0,0,0.05,20.950000000000003,0)" xlink:href="#z"/><use transform="matrix(0.05,0,0,0.05,36.95,0)" xlink:href="#z"/><use transform="matrix(0.05,0,0,0.05,52.95,0)" xlink:href="#s"/><use transform="matrix(0.05,0,0,0.05,62.95,0)" xlink:href="#E"/><use transform="matrix(0.05,0,0,0.05,73.9,0)" xlink:href="#D"/></g><path fill="#fff" d="M128 0H69L1-190h53L99-40l48-150h52" id="F"/><g id="e"><use transform="matrix(0.05,0,0,0.05,0,0)" xlink:href="#v"/><use transform="matrix(0.05,0,0,0.05,10,0)" xlink:href="#F"/><use transform="matrix(0.05,0,0,0.05,20,0)" xlink:href="#v"/><use transform="matrix(0.05,0,0,0.05,30,0)" xlink:href="#E"/><use transform="matrix(0.05,0,0,0.05,40.95,0)" xlink:href="#w"/></g><path fill="#fff" d="M123 10C108 53 80 86 19 72V37c35 8 53-11 59-39L3-190h52l48 148c12-52 28-100 44-148h51" id="G"/><g id="f"><use transform="matrix(0.05,0,0,0.05,0,0)" xlink:href="#v"/><use transform="matrix(0.05,0,0,0.05,10,0)" xlink:href="#E"/><use transform="matrix(0.05,0,0,0.05,20.950000000000003,0)" xlink:href="#w"/><use transform="matrix(0.05,0,0,0.05,26.900000000000002,0)" xlink:href="#C"/><use transform="matrix(0.05,0,0,0.05,31.900000000000002,0)" xlink:href="#w"/><use transform="matrix(0.05,0,0,0.05,37.85,0)" xlink:href="#G"/></g><path fill="#fff" d="M25 0v-261h50V0H25" id="H"/><path fill="#fff" d="M85 4C-2 5 27-109 22-190h50c7 57-23 150 33 157 60-5 35-97 40-157h50l1 190h-47c-2-12 1-28-3-38-12 25-28 42-61 42" id="I"/><path fill="#fff" d="M14-72v-43h91v43H14" id="J"/><path fill="#fff" d="M135-194c52 0 70 43 70 98 0 56-19 99-73 100-30 1-46-15-58-35L72 0H24l1-261h50v104c11-23 29-37 60-37zM114-30c31 0 40-27 40-66 0-37-7-63-39-63s-41 28-41 65c0 36 8 64 40 64" id="K"/><path fill="#fff" d="M25-224v-37h50v37H25zM75 22c2 45-34 59-81 51V38c22 5 31-5 31-27v-201h50V22" id="L"/><g id="g"><use transform="matrix(0.05,0,0,0.05,0,0)" xlink:href="#F"/><use transform="matrix(0.05,0,0,0.05,10,0)" xlink:href="#s"/><use transform="matrix(0.05,0,0,0.05,20,0)" xlink:href="#H"/><use transform="matrix(0.05,0,0,0.05,25,0)" xlink:href="#I"/><use transform="matrix(0.05,0,0,0.05,35.95,0)" xlink:href="#v"/><use transform="matrix(0.05,0,0,0.05,45.95,0)" xlink:href="#J"/><use transform="matrix(0.05,0,0,0.05,51.900000000000006,0)" xlink:href="#y"/><use transform="matrix(0.05,0,0,0.05,62.85,0)" xlink:href="#K"/><use transform="matrix(0.05,0,0,0.05,73.80000000000001,0)" xlink:href="#L"/><use transform="matrix(0.05,0,0,0.05,78.80000000000001,0)" xlink:href="#v"/><use transform="matrix(0.05,0,0,0.05,88.80000000000001,0)" xlink:href="#x"/><use transform="matrix(0.05,0,0,0.05,98.80000000000001,0)" xlink:href="#w"/></g><path fill="#fff" d="M111-147c44 9 85 22 84 75-1 49-35 65-84 68v31H91V-4C40-5 12-27 5-72l45-8c4 24 15 38 41 40-2-22 4-51-2-69-39-10-76-22-76-72 0-47 35-60 78-63v-23h20v23c47 1 70 23 78 62l-46 7c-4-18-12-32-32-34v62zm-20-63c-33-4-45 46-13 54 4 1 8 2 13 4v-58zm20 170c39 5 53-51 15-60-7-2-7-2-15-4v64" id="M"/><path fill="#fff" d="M133 41v34c-50 4-88-6-87-53 0-46 9-101-40-98v-34c48 2 40-52 40-98-1-47 37-57 87-53v34c-79-14-6 124-77 134 73 11-4 147 77 134" id="N"/><path fill="#fff" d="M94-36c2 56 4 113-52 111H8V41C85 54 13-83 84-94c-39-5-38-51-36-97 1-27-12-38-40-36v-34c49-4 87 6 86 53s-8 101 41 98v34c-26 1-42 13-41 40" id="O"/><g id="h"><use transform="matrix(0.05,0,0,0.05,0,0)" xlink:href="#M"/><use transform="matrix(0.05,0,0,0.05,10,0)" xlink:href="#N"/><use transform="matrix(0.05,0,0,0.05,17,0)" xlink:href="#x"/><use transform="matrix(0.05,0,0,0.05,27,0)" xlink:href="#y"/><use transform="matrix(0.05,0,0,0.05,37.95,0)" xlink:href="#z"/><use transform="matrix(0.05,0,0,0.05,53.95,0)" xlink:href="#z"/><use transform="matrix(0.05,0,0,0.05,69.95,0)" xlink:href="#s"/><use transform="matrix(0.05,0,0,0.05,79.95,0)" xlink:href="#E"/><use transform="matrix(0.05,0,0,0.05,90.9,0)" xlink:href="#D"/><use transform="matrix(0.05,0,0,0.05,101.85000000000001,0)" xlink:href="#O"/></g><g id="i"><use transform="matrix(0.05,0,0,0.05,0,0)" xlink:href="#M"/><use transform="matrix(0.05,0,0,0.05,10,0)" xlink:href="#N"/><use transform="matrix(0.05,0,0,0.05,17,0)" xlink:href="#v"/><use transform="matrix(0.05,0,0,0.05,27,0)" xlink:href="#F"/><use transform="matrix(0.05,0,0,0.05,37,0)" xlink:href="#v"/><use transform="matrix(0.05,0,0,0.05,47,0)" xlink:href="#E"/><use transform="matrix(0.05,0,0,0.05,57.95,0)" xlink:href="#w"/><use transform="matrix(0.05,0,0,0.05,63.900000000000006,0)" xlink:href="#O"/></g><g id="j"><use transform="matrix(0.05,0,0,0.05,0,0)" xlink:href="#M"/><use transform="matrix(0.05,0,0,0.05,10,0)" xlink:href="#N"/><use transform="matrix(0.05,0,0,0.05,17,0)" xlink:href="#F"/><use transform="matrix(0.05,0,0,0.05,27,0)" xlink:href="#s"/><use transform="matrix(0.05,0,0,0.05,37,0)" xlink:href="#H"/><use transform="matrix(0.05,0,0,0.05,42,0)" xlink:href="#I"/><use transform="matrix(0.05,0,0,0.05,52.95,0)" xlink:href="#v"/><use transform="matrix(0.05,0,0,0.05,62.95,0)" xlink:href="#J"/><use transform="matrix(0.05,0,0,0.05,68.9,0)" xlink:href="#y"/><use transform="matrix(0.05,0,0,0.05,79.85000000000001,0)" xlink:href="#K"/><use transform="matrix(0.05,0,0,0.05,90.80000000000001,0)" xlink:href="#L"/><use transform="matrix(0.05,0,0,0.05,95.80000000000001,0)" xlink:href="#v"/><use transform="matrix(0.05,0,0,0.05,105.80000000000001,0)" xlink:href="#x"/><use transform="matrix(0.05,0,0,0.05,115.80000000000001,0)" xlink:href="#w"/><use transform="matrix(0.05,0,0,0.05,121.75,0)" xlink:href="#O"/></g><g id="k"><use transform="matrix(0.05,0,0,0.05,0,0)" xlink:href="#M"/><use transform="matrix(0.05,0,0,0.05,10,0)" xlink:href="#N"/><use transform="matrix(0.05,0,0,0.05,17,0)" xlink:href="#x"/><use transform="matrix(0.05,0,0,0.05,27,0)" xlink:href="#y"/><use transform="matrix(0.05,0,0,0.05,37.95,0)" xlink:href="#z"/><use transform="matrix(0.05,0,0,0.05,53.95,0)" xlink:href="#A"/><use transform="matrix(0.05,0,0,0.05,64.9,0)" xlink:href="#y"/><use transform="matrix(0.05,0,0,0.05,75.85000000000001,0)" xlink:href="#B"/><use transform="matrix(0.05,0,0,0.05,85.85000000000001,0)" xlink:href="#C"/><use transform="matrix(0.05,0,0,0.05,90.85000000000001,0)" xlink:href="#w"/><use transform="matrix(0.05,0,0,0.05,96.80000000000001,0)" xlink:href="#v"/><use transform="matrix(0.05,0,0,0.05,106.80000000000001,0)" xlink:href="#O"/></g><g id="l"><use transform="matrix(0.05,0,0,0.05,0,0)" xlink:href="#M"/><use transform="matrix(0.05,0,0,0.05,10,0)" xlink:href="#N"/><use transform="matrix(0.05,0,0,0.05,17,0)" xlink:href="#s"/><use transform="matrix(0.05,0,0,0.05,27,0)" xlink:href="#t"/><use transform="matrix(0.05,0,0,0.05,37.95,0)" xlink:href="#t"/><use transform="matrix(0.05,0,0,0.05,48.900000000000006,0)" xlink:href="#u"/><use transform="matrix(0.05,0,0,0.05,55.900000000000006,0)" xlink:href="#v"/><use transform="matrix(0.05,0,0,0.05,65.9,0)" xlink:href="#t"/><use transform="matrix(0.05,0,0,0.05,76.85000000000001,0)" xlink:href="#s"/><use transform="matrix(0.05,0,0,0.05,86.85000000000001,0)" xlink:href="#w"/><use transform="matrix(0.05,0,0,0.05,92.80000000000001,0)" xlink:href="#v"/><use transform="matrix(0.05,0,0,0.05,102.80000000000001,0)" xlink:href="#O"/></g><g id="m"><use transform="matrix(0.05,0,0,0.05,0,0)" xlink:href="#M"/><use transform="matrix(0.05,0,0,0.05,10,0)" xlink:href="#N"/><use transform="matrix(0.05,0,0,0.05,17,0)" xlink:href="#v"/><use transform="matrix(0.05,0,0,0.05,27,0)" xlink:href="#E"/><use transform="matrix(0.05,0,0,0.05,37.95,0)" xlink:href="#w"/><use transform="matrix(0.05,0,0,0.05,43.900000000000006,0)" xlink:href="#C"/><use transform="matrix(0.05,0,0,0.05,48.900000000000006,0)" xlink:href="#w"/><use transform="matrix(0.05,0,0,0.05,54.85,0)" xlink:href="#G"/><use transform="matrix(0.05,0,0,0.05,64.85000000000001,0)" xlink:href="#O"/></g><path fill="#c92d39" d="M128 0H69L1-190h53L99-40l48-150h52" id="P"/><path fill="#c92d39" d="M133-34C117-15 103 5 69 4 32 3 11-16 11-54c-1-60 55-63 116-61 1-26-3-47-28-47-18 1-26 9-28 27l-52-2c7-38 36-58 82-57s74 22 75 68l1 82c-1 14 12 18 25 15v27c-30 8-71 5-69-32zm-48 3c29 0 43-24 42-57-32 0-66-3-65 30 0 17 8 27 23 27" id="Q"/><path fill="#c92d39" d="M25 0v-261h50V0H25" id="R"/><path fill="#c92d39" d="M25-224v-37h50v37H25zM25 0v-190h50V0H25" id="S"/><path fill="#c92d39" d="M88-194c31-1 46 15 58 34l-1-101h50l1 261h-48c-2-10 0-23-3-31C134-8 116 4 84 4 32 4 16-41 15-95c0-56 19-97 73-99zm17 164c33 0 40-30 41-66 1-37-9-64-41-64s-38 30-39 65c0 43 13 65 39 65" id="T"/><path fill="#c92d39" d="M115-3C79 11 28 4 28-45v-112H4v-33h27l15-45h31v45h36v33H77v99c-1 23 16 31 38 25v30" id="U"/><path fill="#c92d39" d="M110-194c64 0 96 36 96 99 0 64-35 99-97 99-61 0-95-36-95-99 0-62 34-99 96-99zm-1 164c35 0 45-28 45-65 0-40-10-65-43-65-34 0-45 26-45 65 0 36 10 65 43 65" id="V"/><path fill="#c92d39" d="M135-150c-39-12-60 13-60 57V0H25l-1-190h47c2 13-1 29 3 40 6-28 27-53 61-41v41" id="W"/><g id="n"><use transform="matrix(0.05,0,0,0.05,0,0)" xlink:href="#P"/><use transform="matrix(0.05,0,0,0.05,10,0)" xlink:href="#Q"/><use transform="matrix(0.05,0,0,0.05,20,0)" xlink:href="#R"/><use transform="matrix(0.05,0,0,0.05,25,0)" xlink:href="#S"/><use transform="matrix(0.05,0,0,0.05,30,0)" xlink:href="#T"/><use transform="matrix(0.05,0,0,0.05,40.95,0)" xlink:href="#Q"/><use transform="matrix(0.05,0,0,0.05,50.95,0)" xlink:href="#U"/><use transform="matrix(0.05,0,0,0.05,56.900000000000006,0)" xlink:href="#V"/><use transform="matrix(0.05,0,0,0.05,67.85000000000001,0)" xlink:href="#W"/></g><path fill="#c92d39" d="M121-226c-27-7-43 5-38 36h38v33H83V0H34v-157H6v-33h28c-9-59 32-81 87-68v32" id="X"/><path fill="#c92d39" d="M185-48c-13 30-37 53-82 52C43 2 14-33 14-96s30-98 90-98c62 0 83 45 84 108H66c0 31 8 55 39 56 18 0 30-7 34-22zm-45-69c5-46-57-63-70-21-2 6-4 13-4 21h74" id="Y"/><g id="o"><use transform="matrix(0.05,0,0,0.05,0,0)" xlink:href="#X"/><use transform="matrix(0.05,0,0,0.05,5.95,0)" xlink:href="#S"/><use transform="matrix(0.05,0,0,0.05,10.95,0)" xlink:href="#R"/><use transform="matrix(0.05,0,0,0.05,15.949999999999998,0)" xlink:href="#U"/><use transform="matrix(0.05,0,0,0.05,21.9,0)" xlink:href="#Y"/><use transform="matrix(0.05,0,0,0.05,31.899999999999995,0)" xlink:href="#W"/></g><g id="p"><use transform="matrix(0.05,0,0,0.05,0,0)" xlink:href="#B"/><use transform="matrix(0.05,0,0,0.05,10,0)" xlink:href="#y"/><use transform="matrix(0.05,0,0,0.05,20.950000000000003,0)" xlink:href="#A"/><use transform="matrix(0.05,0,0,0.05,31.900000000000006,0)" xlink:href="#J"/><use transform="matrix(0.05,0,0,0.05,37.85000000000001,0)" xlink:href="#D"/><use transform="matrix(0.05,0,0,0.05,48.80000000000001,0)" xlink:href="#y"/><use transform="matrix(0.05,0,0,0.05,59.750000000000014,0)" xlink:href="#z"/><use transform="matrix(0.05,0,0,0.05,75.75000000000001,0)" xlink:href="#s"/><use transform="matrix(0.05,0,0,0.05,85.75000000000001,0)" xlink:href="#C"/><use transform="matrix(0.05,0,0,0.05,90.75000000000001,0)" xlink:href="#E"/></g><path fill="#fff" d="M121-226c-27-7-43 5-38 36h38v33H83V0H34v-157H6v-33h28c-9-59 32-81 87-68v32" id="Z"/><g id="q"><use transform="matrix(0.05,0,0,0.05,0,0)" xlink:href="#x"/><use transform="matrix(0.05,0,0,0.05,10,0)" xlink:href="#y"/><use transform="matrix(0.05,0,0,0.05,20.950000000000003,0)" xlink:href="#E"/><use transform="matrix(0.05,0,0,0.05,31.900000000000006,0)" xlink:href="#Z"/><use transform="matrix(0.05,0,0,0.05,37.85000000000001,0)" xlink:href="#C"/><use transform="matrix(0.05,0,0,0.05,42.85000000000001,0)" xlink:href="#t"/></g><path fill="#fff" d="M114-157C55-157 80-60 75 0H25v-261h50l-1 109c12-26 28-41 61-42 86-1 58 113 63 194h-50c-7-57 23-157-34-157" id="aa"/><g id="r"><use transform="matrix(0.05,0,0,0.05,0,0)" xlink:href="#B"/><use transform="matrix(0.05,0,0,0.05,10,0)" xlink:href="#x"/><use transform="matrix(0.05,0,0,0.05,20,0)" xlink:href="#aa"/><use transform="matrix(0.05,0,0,0.05,30.950000000000003,0)" xlink:href="#v"/><use transform="matrix(0.05,0,0,0.05,40.95,0)" xlink:href="#z"/><use transform="matrix(0.05,0,0,0.05,56.95,0)" xlink:href="#s"/></g></defs></g></svg>